<svg width="300" height="214" viewBox="0 0 300 214" fill="none" xmlns="http://www.w3.org/2000/svg">
<g clip-path="url(#clip0_60_1546)">
<path d="M298.347 198.867C298.315 198.954 298.248 199.026 298.163 199.065C298.078 199.104 297.981 199.107 297.894 199.075L17.3898 94.4675C17.3022 94.4347 17.2313 94.3684 17.1925 94.2831C17.1537 94.1979 17.1502 94.1007 17.1828 94.0129C17.2154 93.9252 17.2814 93.8539 17.3664 93.8148C17.4513 93.7758 17.5483 93.7721 17.6359 93.8045L298.14 198.412C298.227 198.445 298.298 198.511 298.337 198.596C298.376 198.681 298.38 198.779 298.347 198.867Z" fill="#F2F2F2"/>
<path d="M148.925 0H82.0852C76.842 0.00594584 71.8152 2.09603 68.1077 5.81172C64.4002 9.52742 62.3147 14.5653 62.3088 19.82V25.8749C62.1716 25.8371 62.0275 25.8317 61.8879 25.8592C61.7483 25.8868 61.617 25.9465 61.5044 26.0336C61.3917 26.1207 61.3008 26.2329 61.2389 26.3612C61.1769 26.4896 61.1455 26.6306 61.1473 26.7732V31.4294C61.1455 31.572 61.1769 31.7131 61.2389 31.8414C61.3008 31.9698 61.3917 32.082 61.5044 32.1691C61.617 32.2562 61.7483 32.3159 61.8879 32.3434C62.0275 32.371 62.1716 32.3656 62.3088 32.3278V39.3779C62.1716 39.3401 62.0275 39.3347 61.8879 39.3622C61.7483 39.3898 61.617 39.4495 61.5043 39.5366C61.3917 39.6237 61.3008 39.7359 61.2388 39.8642C61.1769 39.9926 61.1455 40.1337 61.1473 40.2762V51.9168C61.1455 52.0594 61.1769 52.2004 61.2388 52.3288C61.3008 52.4572 61.3917 52.5693 61.5043 52.6565C61.617 52.7436 61.7483 52.8033 61.8879 52.8308C62.0275 52.8583 62.1716 52.8529 62.3088 52.8151V57.0715C62.1716 57.0337 62.0275 57.0283 61.8879 57.0558C61.7483 57.0834 61.617 57.1431 61.5043 57.2302C61.3917 57.3173 61.3008 57.4295 61.2388 57.5578C61.1769 57.6862 61.1455 57.8273 61.1473 57.9699V69.6104C61.1455 69.753 61.1769 69.894 61.2388 70.0224C61.3008 70.1508 61.3917 70.2629 61.5043 70.3501C61.617 70.4372 61.7483 70.4969 61.8879 70.5244C62.0275 70.5519 62.1716 70.5465 62.3088 70.5087V193.434C62.3147 198.689 64.4002 203.727 68.1077 207.443C71.8152 211.158 76.842 213.249 82.0852 213.254H148.925C154.168 213.249 159.195 211.158 162.903 207.443C166.61 203.727 168.696 198.689 168.702 193.434V19.82C168.696 14.5653 166.61 9.52742 162.903 5.81172C159.195 2.09603 154.168 0.00594584 148.925 0ZM164.52 193.434C164.515 197.578 162.871 201.551 159.947 204.481C157.024 207.411 153.06 209.059 148.925 209.064H82.0852C77.9506 209.059 73.9867 207.411 71.063 204.481C68.1394 201.551 66.4949 197.578 66.4902 193.434V19.82C66.4949 15.6763 68.1394 11.7036 71.063 8.77354C73.9867 5.84347 77.9506 4.19529 82.0852 4.19059H148.925C153.06 4.19528 157.024 5.84346 159.947 8.77354C162.871 11.7036 164.515 15.6763 164.52 19.82V193.434Z" fill="#3F3D56"/>
<path d="M148.925 211.392H82.0853C77.3348 211.387 72.7804 209.493 69.4213 206.126C66.0621 202.76 64.1726 198.195 64.1672 193.434V19.82C64.1726 15.059 66.0621 10.4946 69.4213 7.12804C72.7804 3.76152 77.3348 1.86783 82.0853 1.86243H148.925C153.676 1.86783 158.23 3.76151 161.589 7.12804C164.948 10.4946 166.838 15.059 166.843 19.82V193.434C166.838 198.195 164.948 202.76 161.589 206.126C158.23 209.493 153.676 211.387 148.925 211.392Z" fill="#E6E6E6"/>
<path d="M150.577 208.598H80.4337C77.2296 208.595 74.1579 207.317 71.8923 205.047C69.6267 202.776 68.3523 199.698 68.3486 196.487V16.7679C68.3523 13.5568 69.6267 10.4783 71.8923 8.20769C74.1578 5.93711 77.2296 4.6599 80.4336 4.65626H89.5811C90.1106 4.65687 90.6183 4.86797 90.9928 5.24326C91.3673 5.61855 91.5779 6.12738 91.5785 6.65811C91.5802 8.22599 92.2025 9.72915 93.3087 10.8378C94.4149 11.9465 95.9148 12.5701 97.4792 12.5718H132.602C134.166 12.5701 135.666 11.9465 136.773 10.8378C137.879 9.72915 138.501 8.22598 138.503 6.6581C138.503 6.12737 138.714 5.61855 139.088 5.24326C139.463 4.86797 139.971 4.65686 140.5 4.65625H150.577C153.781 4.65989 156.853 5.9371 159.118 8.20767C161.384 10.4782 162.658 13.5568 162.662 16.7679V196.487C162.658 199.698 161.384 202.776 159.118 205.047C156.853 207.317 153.781 208.595 150.577 208.598Z" fill="white"/>
<path d="M118.525 8.73041H110.162C109.916 8.73041 109.68 8.6323 109.505 8.45765C109.331 8.28301 109.233 8.04614 109.233 7.79916C109.233 7.55218 109.331 7.31532 109.505 7.14067C109.68 6.96603 109.916 6.86792 110.162 6.86792H118.525C118.772 6.86792 119.008 6.96603 119.182 7.14067C119.356 7.31532 119.454 7.55218 119.454 7.79916C119.454 8.04614 119.356 8.28301 119.182 8.45765C119.008 8.6323 118.772 8.73041 118.525 8.73041Z" fill="white"/>
<path d="M124.333 8.49753C124.589 8.49753 124.797 8.28906 124.797 8.03191C124.797 7.77475 124.589 7.56628 124.333 7.56628C124.076 7.56628 123.868 7.77475 123.868 8.03191C123.868 8.28906 124.076 8.49753 124.333 8.49753Z" fill="white"/>
<path d="M164.922 41.0314H65.9966V42.0926H164.922V41.0314Z" fill="#E6E6E6"/>
<path d="M164.922 62.2545H65.9966V63.3157H164.922V62.2545Z" fill="#E6E6E6"/>
<path d="M164.922 106.116H65.9966V107.177H164.922V106.116Z" fill="#E6E6E6"/>
<path d="M164.922 149.977H65.9966V151.038H164.922V149.977Z" fill="#E6E6E6"/>
<path d="M164.922 184.288H65.9966V185.349H164.922V184.288Z" fill="#E6E6E6"/>
<path d="M137.838 41.562H136.779V106.646H137.838V41.562Z" fill="#E6E6E6"/>
<path d="M88.3152 106.627H87.2563V184.818H88.3152V106.627Z" fill="#E6E6E6"/>
<path d="M162.662 128.075H87.7859V129.137H162.662V128.075Z" fill="#E6E6E6"/>
<path d="M137.952 184.818H136.893V208.598H137.952V184.818Z" fill="#E6E6E6"/>
<path d="M137.132 84.6197H68.1721V85.6808H137.132V84.6197Z" fill="#E6E6E6"/>
<path d="M82.5737 3.98571L81.5969 4.39539L97.2021 41.7668L98.1789 41.3571L82.5737 3.98571Z" fill="#E6E6E6"/>
<path d="M130.635 12.5717H129.576V41.5619H130.635V12.5717Z" fill="#E6E6E6"/>
<path d="M157.938 57.6562C157.938 67.1643 143.27 89.3197 138.983 95.5914C138.854 95.781 138.68 95.9361 138.478 96.0433C138.275 96.1505 138.049 96.2065 137.82 96.2065C137.591 96.2065 137.365 96.1505 137.162 96.0433C136.96 95.9361 136.786 95.781 136.657 95.5914C132.37 89.3197 117.702 67.1643 117.702 57.6562C117.702 52.3089 119.822 47.1806 123.595 43.3995C127.367 39.6184 132.485 37.4942 137.82 37.4942C143.156 37.4942 148.273 39.6184 152.045 43.3995C155.818 47.1806 157.938 52.3089 157.938 57.6562Z" fill="#C51333"/>
<path d="M137.82 66.4992C143.473 66.4992 148.055 61.9066 148.055 56.2413C148.055 50.5761 143.473 45.9835 137.82 45.9835C132.167 45.9835 127.585 50.5761 127.585 56.2413C127.585 61.9066 132.167 66.4992 137.82 66.4992Z" fill="white"/>
<path d="M137.15 106.951L98.3875 184.569L99.3343 185.044L138.096 107.426L137.15 106.951Z" fill="#E6E6E6"/>
<path d="M192.974 124.025C193.431 124.271 193.936 124.414 194.454 124.443C194.972 124.472 195.49 124.387 195.972 124.194C196.454 124.001 196.888 123.705 197.243 123.325C197.598 122.946 197.865 122.493 198.027 121.999L210.637 121.781L206.935 116.361L195.528 117.399C194.681 117.182 193.785 117.284 193.009 117.685C192.232 118.086 191.629 118.758 191.314 119.575C191 120.392 190.995 121.296 191.301 122.116C191.606 122.936 192.202 123.615 192.974 124.025H192.974Z" fill="#FFB8B8"/>
<path d="M200.544 123.867C200.349 123.867 200.155 123.827 199.975 123.75C199.796 123.673 199.633 123.561 199.498 123.419C199.363 123.278 199.258 123.11 199.189 122.927C199.12 122.743 199.089 122.548 199.098 122.352L199.353 116.557C199.366 116.212 199.503 115.883 199.738 115.631C199.973 115.378 200.291 115.218 200.633 115.18L215.242 113.501L214.752 123.158L200.615 123.865C200.592 123.866 200.568 123.867 200.544 123.867Z" fill="#C51333"/>
<path d="M218.336 203.302L214.223 204.648L207.084 189.389L213.154 187.402L218.336 203.302Z" fill="#FFB8B8"/>
<path d="M220.687 206.954L207.425 211.295L207.37 211.127C207.148 210.448 207.063 209.731 207.117 209.019C207.172 208.306 207.367 207.611 207.689 206.974C208.012 206.337 208.457 205.769 208.999 205.304C209.54 204.839 210.168 204.486 210.846 204.264L210.846 204.264L218.946 201.612L220.687 206.954Z" fill="#2F2E41"/>
<path d="M230.451 209.683L226.124 209.683L224.065 192.956L230.452 192.957L230.451 209.683Z" fill="#FFB8B8"/>
<path d="M231.554 213.887L217.602 213.886V213.709C217.602 212.995 217.743 212.287 218.016 211.627C218.289 210.966 218.689 210.366 219.193 209.861C219.697 209.356 220.296 208.955 220.955 208.681C221.614 208.408 222.32 208.267 223.033 208.267H223.033L231.555 208.267L231.554 213.887Z" fill="#2F2E41"/>
<path d="M223.879 205.612C223.525 205.612 223.184 205.481 222.919 205.246C222.655 205.011 222.485 204.686 222.443 204.334L216.864 157.592L208.698 170.73L218.279 195.27C218.41 195.609 218.409 195.985 218.278 196.324C218.146 196.663 217.893 196.94 217.568 197.101L209.44 201.088C209.254 201.179 209.052 201.229 208.845 201.235C208.639 201.241 208.433 201.202 208.243 201.122C208.053 201.042 207.882 200.922 207.741 200.77C207.601 200.618 207.495 200.437 207.43 200.241L198.422 172.966C197.744 170.913 197.655 168.711 198.167 166.61L203.991 142.656L204.059 142.618L217.188 135.411L217.263 135.439L232.725 141.094L231.107 171.803L232.283 203.676C232.299 204.055 232.165 204.425 231.911 204.706C231.658 204.987 231.303 205.156 230.926 205.178L223.969 205.609C223.939 205.611 223.909 205.612 223.879 205.612Z" fill="#2F2E41"/>
<path d="M215.362 151.758C213.052 151.758 211.106 151.099 209.888 149.422L209.849 149.368L210.636 141.082L203.629 144.981C203.484 145.062 203.317 145.096 203.152 145.079C202.986 145.062 202.83 144.994 202.704 144.885C202.579 144.776 202.489 144.632 202.448 144.47C202.407 144.309 202.417 144.139 202.475 143.983L211.215 120.723L216.985 101.775C217.271 100.258 218.01 98.8647 219.104 97.7785C220.198 96.6923 221.596 95.9647 223.111 95.6922C228.252 94.7459 231.314 96.4843 234.849 100.342C235.704 101.28 236.334 102.402 236.69 103.622C237.047 104.842 237.12 106.127 236.905 107.38L233.561 126.537L234.543 143.714C234.619 144.01 234.598 144.322 234.486 144.606C234.373 144.89 234.174 145.131 233.916 145.295C231.183 147.038 222.801 151.757 215.362 151.758Z" fill="#C51333"/>
<path d="M227.057 92.8233C231.845 92.8233 235.726 88.9337 235.726 84.1356C235.726 79.3375 231.845 75.4479 227.057 75.4479C222.269 75.4479 218.388 79.3375 218.388 84.1356C218.388 88.9337 222.269 92.8233 227.057 92.8233Z" fill="#FFB8B8"/>
<path d="M229.315 146.064C229.787 145.847 230.205 145.529 230.541 145.133C230.877 144.737 231.122 144.271 231.259 143.77C231.396 143.268 231.422 142.743 231.334 142.23C231.246 141.718 231.048 141.231 230.752 140.803L238.187 130.593L231.64 130.281L225.584 140.025C224.9 140.571 224.44 141.349 224.291 142.211C224.142 143.074 224.313 143.961 224.773 144.706C225.233 145.45 225.949 145.999 226.787 146.25C227.624 146.5 228.523 146.434 229.315 146.064Z" fill="#FFB8B8"/>
<path d="M233.341 140.302C232.979 140.354 232.61 140.266 232.309 140.056L227.387 136.616C227.091 136.411 226.883 136.102 226.802 135.751C226.722 135.399 226.776 135.03 226.954 134.716L235.716 119.092L226.903 108.461C226.44 107.903 226.098 107.254 225.899 106.556C225.701 105.858 225.649 105.126 225.747 104.407C225.846 103.688 226.093 102.998 226.472 102.38C226.852 101.761 227.356 101.229 227.952 100.817C228.547 100.404 229.223 100.121 229.934 99.984C230.645 99.8473 231.377 99.8605 232.083 100.023C232.789 100.185 233.453 100.493 234.034 100.926C234.615 101.36 235.099 101.91 235.456 102.542L245.187 119.754C245.255 119.877 245.292 120.015 245.291 120.156C245.291 120.296 245.255 120.435 245.186 120.557L234.395 139.583C234.295 139.758 234.16 139.911 233.998 140.031C233.837 140.151 233.652 140.236 233.456 140.281C233.418 140.29 233.38 140.297 233.341 140.302Z" fill="#C51333"/>
<path d="M223.592 83.0265C222.734 82.3847 221.547 82.4848 220.53 82.1484C219.925 81.9481 219.383 81.5919 218.958 81.1153C218.534 80.6388 218.242 80.0588 218.111 79.4335C217.981 78.8082 218.017 78.1596 218.216 77.5526C218.415 76.9456 218.769 76.4017 219.244 75.9754C220.342 74.9894 221.904 74.7656 223.367 74.5852C225.372 74.3381 227.396 74.0906 229.406 74.2871C231.416 74.4836 233.439 75.1641 234.909 76.5529C236.529 78.0841 237.327 80.3636 237.332 82.5954C237.275 84.8375 236.661 87.0301 235.545 88.9742C235.2 89.7129 234.68 90.3558 234.03 90.8468C233.354 91.2941 232.401 91.4112 231.75 90.9281C231.187 90.5106 230.981 89.7792 230.727 89.1253C230.473 88.4715 230.039 87.775 229.346 87.6741C228.453 87.5442 227.772 88.4536 226.921 88.7512C225.73 89.1674 224.407 88.2469 223.921 87.0803C223.435 85.9137 223.563 84.5939 223.7 83.3372" fill="#2F2E41"/>
<path d="M300 213.646C300 213.74 299.962 213.83 299.896 213.896C299.83 213.962 299.741 214 299.647 214H0.352941C0.259335 214 0.169563 213.963 0.103374 213.896C0.0371845 213.83 0 213.74 0 213.646C0 213.552 0.0371845 213.462 0.103374 213.396C0.169563 213.33 0.259335 213.293 0.352941 213.293H299.647C299.741 213.293 299.83 213.33 299.896 213.396C299.962 213.463 300 213.553 300 213.646Z" fill="#CCCCCC"/>
<path d="M137.82 111.068C140.354 111.068 142.408 109.009 142.408 106.469C142.408 103.93 140.354 101.871 137.82 101.871C135.286 101.871 133.232 103.93 133.232 106.469C133.232 109.009 135.286 111.068 137.82 111.068Z" fill="#C51333"/>
<path d="M202.415 56.1922C200.499 58.7516 192.086 61.7464 189.668 62.5669C189.595 62.5918 189.517 62.5984 189.44 62.5862C189.364 62.5741 189.292 62.5435 189.231 62.4971C189.169 62.4507 189.119 62.3899 189.086 62.3201C189.054 62.2502 189.038 62.1733 189.041 62.0961C189.152 59.5401 189.668 50.607 191.585 48.0475C192.662 46.6081 194.266 45.6567 196.044 45.4025C197.822 45.1484 199.627 45.6124 201.063 46.6925C202.5 47.7726 203.449 49.3802 203.702 51.1617C203.956 52.9433 203.493 54.7528 202.415 56.1922Z" fill="#F2F2F2"/>
<path d="M197.285 55.1912C199.187 55.1912 200.729 53.6456 200.729 51.739C200.729 49.8324 199.187 48.2869 197.285 48.2869C195.383 48.2869 193.84 49.8324 193.84 51.739C193.84 53.6456 195.383 55.1912 197.285 55.1912Z" fill="white"/>
<path d="M187.162 66.8073C188.015 66.8073 188.706 66.1144 188.706 65.2597C188.706 64.4051 188.015 63.7122 187.162 63.7122C186.309 63.7122 185.618 64.4051 185.618 65.2597C185.618 66.1144 186.309 66.8073 187.162 66.8073Z" fill="#F2F2F2"/>
<path d="M34.4743 126.398C37.294 130.716 37.2039 145.145 37.1173 149.27C37.1148 149.395 37.082 149.517 37.0218 149.626C36.9615 149.735 36.8757 149.827 36.7716 149.896C36.6676 149.964 36.5485 150.006 36.4246 150.017C36.3008 150.029 36.176 150.01 36.0611 149.963C32.2547 148.392 19.0237 142.7 16.2039 138.383C15.4176 137.181 14.8754 135.835 14.6083 134.423C14.3411 133.01 14.3543 131.559 14.647 130.152C14.9397 128.744 15.5063 127.409 16.3143 126.221C17.1222 125.033 18.1558 124.017 19.356 123.229C20.5561 122.442 21.8993 121.9 23.3087 121.633C24.7182 121.366 26.1663 121.38 27.5703 121.674C28.9742 121.969 30.3066 122.537 31.4912 123.348C32.6759 124.158 33.6895 125.195 34.4743 126.398Z" fill="#F2F2F2"/>
<path d="M24.9195 137.315C27.9873 137.315 30.4743 134.823 30.4743 131.748C30.4743 128.673 27.9873 126.181 24.9195 126.181C21.8517 126.181 19.3647 128.673 19.3647 131.748C19.3647 134.823 21.8517 137.315 24.9195 137.315Z" fill="white"/>
<path d="M39.8153 157.052C41.1905 157.052 42.3053 155.934 42.3053 154.556C42.3053 153.178 41.1905 152.06 39.8153 152.06C38.44 152.06 37.3252 153.178 37.3252 154.556C37.3252 155.934 38.44 157.052 39.8153 157.052Z" fill="#F2F2F2"/>
</g>
<defs>
<clipPath id="clip0_60_1546">
<rect width="300" height="214" fill="white"/>
</clipPath>
</defs>
</svg>
