<svg width="250" height="139" viewBox="0 0 250 139" fill="none" xmlns="http://www.w3.org/2000/svg">
<g clip-path="url(#clip0_60_1588)">
<path d="M230.832 110.806C230.554 111.407 230.276 111.999 229.999 112.583C229.567 113.491 229.14 114.38 228.719 115.253C228.532 115.639 228.345 116.019 228.162 116.398C226.098 120.616 224.17 124.347 222.533 127.415C221.048 130.197 218.842 132.527 216.147 134.163C213.452 135.799 210.366 136.68 207.213 136.713L170.805 137.11H170.421L167.3 137.143L164.63 137.172L156.451 137.266H156.119L151.951 137.311H151.824L126.136 137.59L103.206 137.83L100.538 137.859L83.9728 138.039H83.9464L73.2029 138.154H73.0876L39.1163 138.521L28.9537 138.632C28.0884 138.642 27.2233 138.598 26.3633 138.502C26.0704 138.468 25.7775 138.43 25.487 138.384C20.7473 137.653 16.4014 135.319 13.1733 131.773C8.80144 126.942 5.62037 121.348 3.48366 115.253C3.17476 114.374 2.88666 113.484 2.61938 112.583C-4.77749 87.5691 4.23992 55.312 20.4693 33.7312C21.1495 32.8285 21.841 31.9482 22.5436 31.0903L22.5604 31.0711C27.5517 24.9443 33.1479 19.8258 39.1091 16.1862C49.6726 9.72563 61.3765 7.90582 72.8884 13.3292C82.6284 17.9196 91.7226 20.0779 100.538 20.6637C101.429 20.7213 102.32 20.7645 103.206 20.7909C123.428 21.4271 142.38 14.1407 164.635 9.43753C165.521 9.25027 166.409 9.06541 167.305 8.89015C183.181 5.7307 200.793 4.06454 221.738 7.56731C223.914 7.92279 226.061 8.43632 228.162 9.10382C229.086 9.40152 229.976 9.72163 230.832 10.0641C240.829 14.1311 246.281 21.6456 248.598 31.0615C248.817 31.9354 249.007 32.8245 249.167 33.7288C253.275 56.3779 241.244 88.5054 230.832 110.806Z" fill="#F2F2F2"/>
<path opacity="0.1" d="M119.325 112.583C119.228 113.481 119.078 114.372 118.876 115.253H141.371V112.583H119.325ZM100.538 127.662L103.206 127.641V121.046C102.291 121.005 101.4 120.964 100.538 120.921V127.662ZM44.6189 112.583V115.253H92.2748V112.583H44.6189ZM248.61 31.0639H230.844V10.0665C229.988 9.71761 229.098 9.3975 228.174 9.10621V31.0735H167.305V8.88293C166.409 9.05819 165.521 9.24305 164.635 9.43032V31.0639H103.206V20.7837C102.32 20.7573 101.429 20.7141 100.538 20.6565V31.0639H39.1091V16.179C33.1479 19.8186 27.5516 24.9371 22.5604 31.0639H22.5436V31.0831C21.8393 31.9474 21.1479 32.8277 20.4693 33.724H22.5436V112.583H2.61694C2.88263 113.484 3.17073 114.374 3.48123 115.253H22.5412V137.729C23.5002 138.022 24.479 138.246 25.4701 138.399C25.7606 138.444 26.0535 138.483 26.3464 138.516C27.2065 138.613 28.0716 138.656 28.9369 138.646L39.0995 138.536V115.248H100.538V137.866L103.206 137.837V115.253H164.635V137.174L167.305 137.146V115.253H228.162V116.398C228.345 116.019 228.532 115.639 228.719 115.253C229.14 114.382 229.567 113.492 229.999 112.583C230.276 111.999 230.554 111.407 230.832 110.806V33.7408H249.179C249.017 32.8301 248.828 31.9378 248.61 31.0639ZM39.1091 112.583V33.7312H100.538V112.583H39.1091ZM103.21 112.583V33.7312H164.635V112.583H103.21ZM228.167 112.583H167.305V33.7312H228.162L228.167 112.583Z" fill="black"/>
<path d="M200.402 84.7674C197.075 78.6242 192.361 73.3423 186.633 69.3423C186.224 69.0597 185.752 68.8817 185.258 68.8237C185.932 64.387 185.791 59.4846 183.287 55.7873C177.345 47.0148 147.071 56.0682 147.071 56.0682C125.85 48.7122 107.457 58.0489 107.457 58.0489C107.457 58.0489 83.9727 54.3709 73.222 57.2014C68.1515 58.5363 66.9199 63.7076 67.0351 68.8021H67.0183C66.5687 68.8013 66.1248 68.9019 65.7195 69.0964C65.3142 69.291 64.9581 69.5744 64.6775 69.9257C61.8182 73.498 53.1801 84.5009 53.4154 86.6256C53.6987 89.1729 63.0354 122.275 62.6128 138.262L193.046 136.822C193.046 136.822 195.207 104.651 200.611 87.0409C200.845 86.2853 200.77 85.4677 200.402 84.7674Z" fill="#3F3D56"/>
<path opacity="0.1" d="M64.3125 86.7697L69.6879 76.0165L74.2134 96.9538L74.2662 106.672L64.3125 86.7697Z" fill="black"/>
<path opacity="0.1" d="M187.671 86.7697L182.295 76.0165L176.06 95.8687L177.261 107.152L187.671 86.7697Z" fill="black"/>
<path d="M73.8198 96.3825L176.07 95.8231L177.203 107.14L74.2136 106.857L73.8198 96.3825Z" fill="#3F3D56"/>
<path opacity="0.1" d="M73.8198 96.3825L176.07 95.8231L177.203 107.14L74.2136 106.857L73.8198 96.3825Z" fill="black"/>
<path opacity="0.1" d="M175.227 106.039H76.2998C74.9115 106.039 73.7861 107.164 73.7861 108.552V115.692C73.7861 117.08 74.9115 118.206 76.2998 118.206H175.227C176.615 118.206 177.741 117.08 177.741 115.692V108.552C177.741 107.164 176.615 106.039 175.227 106.039Z" fill="white"/>
<path d="M156.467 65.3354C156.467 65.3354 156.122 64.8552 155.713 65.1145C155.519 65.2417 154.604 66.3941 153.706 67.5657C153.265 68.1395 152.825 68.7181 152.477 69.179C152.047 69.7456 151.757 70.1394 151.757 70.1394L151.584 70.4635L150.535 72.4249L149.548 74.2687L149.308 75.1378L152.64 76.271L156.434 75.2363L156.27 74.5328L156.242 74.4128L156.273 72.7946L156.359 68.2331L156.4 66.1804V65.9404L156.467 65.3354Z" fill="#FFE09C"/>
<path d="M148.837 76.5807C148.837 76.5807 152.439 77.8651 154.285 77.1929C154.285 77.1929 155.881 76.6839 156.51 76.1918C156.51 76.1918 157.18 75.8413 156.27 74.6985C156.27 74.6985 153.939 76.127 151.733 75.5652L149.526 75.001L148.837 76.5807Z" fill="#E7C4C3"/>
<path d="M152.854 74.9556C153.416 74.6264 153.645 73.9738 153.366 73.4979C153.088 73.022 152.406 72.9031 151.844 73.2322C151.283 73.5614 151.053 74.214 151.332 74.6899C151.611 75.1658 152.293 75.2847 152.854 74.9556Z" fill="#FF7F8E"/>
<path d="M155.249 72.0843C155.811 71.7552 156.04 71.1025 155.761 70.6266C155.482 70.1507 154.801 70.0318 154.239 70.3609C153.678 70.6901 153.448 71.3427 153.727 71.8186C154.006 72.2945 154.687 72.4134 155.249 72.0843Z" fill="#FF7F8E"/>
<path d="M156.27 72.7947C156.089 72.7192 155.893 72.6879 155.698 72.7033C155.502 72.7187 155.314 72.7805 155.147 72.8835C154.585 73.2124 154.354 73.8654 154.635 74.3408C154.916 74.8161 155.596 74.9362 156.155 74.6073C156.193 74.5833 156.232 74.5592 156.268 74.5328L156.239 74.4128L156.27 72.7947Z" fill="#FF7F8E"/>
<path d="M152.196 70.8908C152.129 70.7804 152.04 70.6854 151.934 70.6117C151.828 70.5381 151.708 70.4876 151.582 70.4634L150.532 72.4249C150.716 72.5077 150.917 72.544 151.118 72.5306C151.319 72.5172 151.514 72.4545 151.685 72.3481C152.247 72.0192 152.475 71.3661 152.196 70.8908Z" fill="#FF7F8E"/>
<path d="M154.53 68.017C154.443 67.8783 154.322 67.764 154.179 67.685C154.036 67.606 153.875 67.5649 153.711 67.5657C153.269 68.1395 152.83 68.7181 152.482 69.179L152.496 69.2078C152.775 69.688 153.457 69.8008 154.018 69.4719C154.58 69.143 154.804 68.4924 154.53 68.017Z" fill="#FF7F8E"/>
<path d="M156.398 66.178C156.274 66.2091 156.155 66.2576 156.045 66.3221C155.483 66.651 155.255 67.304 155.533 67.7794C155.62 67.9188 155.742 68.0335 155.886 68.1126C156.03 68.1916 156.192 68.2323 156.357 68.2307L156.398 66.178Z" fill="#FF7F8E"/>
<path d="M150.806 74.0502L150.614 73.7261C150.902 73.6402 151.167 73.4928 151.392 73.294C151.406 73.2796 151.418 73.2628 151.43 73.2484C151.67 72.9459 151.62 73.5749 151.62 73.5749C151.62 73.5749 151.029 74.0766 150.806 74.0502Z" fill="#94CC79"/>
<path d="M153.639 73.5485L153.447 73.222C153.734 73.1356 154 72.9882 154.225 72.7898C154.225 72.7754 154.251 72.761 154.263 72.7442C154.503 72.4441 154.453 73.0707 154.453 73.0707C154.453 73.0707 153.862 73.5749 153.639 73.5485Z" fill="#94CC79"/>
<path d="M153.38 72.204L153.188 71.8775C153.475 71.7919 153.74 71.6453 153.966 71.4478C153.978 71.431 153.992 71.4166 154.004 71.4022C154.244 71.0997 154.194 71.7263 154.194 71.7263C154.194 71.7263 153.603 72.2256 153.38 72.204Z" fill="#94CC79"/>
<path d="M153.723 69.7792L153.531 69.4527C153.818 69.3664 154.084 69.219 154.309 69.0206C154.309 69.0062 154.335 68.9918 154.347 68.975C154.587 68.6725 154.537 69.3015 154.537 69.3015C154.537 69.3015 153.946 69.8033 153.723 69.7792Z" fill="#94CC79"/>
<path d="M155.349 66.8455L155.159 66.519C155.446 66.4329 155.71 66.2854 155.934 66.0868C155.948 66.0727 155.961 66.0575 155.973 66.0412C156.213 65.7411 156.165 66.3677 156.165 66.3677C156.165 66.3677 155.572 66.8695 155.349 66.8455Z" fill="#94CC79"/>
<path d="M155.166 69.8392L154.974 69.5127C155.261 69.4276 155.527 69.281 155.752 69.083C155.752 69.0662 155.778 69.0517 155.79 69.0373C156.03 68.7348 155.98 69.3615 155.98 69.3615C155.98 69.3615 155.389 69.8656 155.166 69.8392Z" fill="#94CC79"/>
<path d="M148.247 75.5652C148.247 75.5652 147.786 76.7656 148.837 76.5735C149.305 76.031 149.625 75.3769 149.767 74.6745C149.767 74.6745 152.04 69.6928 152.712 69.2366C152.712 69.2366 155.675 65.1865 155.994 65.1265C155.994 65.1265 156.097 64.7327 155.063 65.5658C154.028 66.3989 151.762 69.6064 151.762 69.6064L149.601 73.1283L149.092 74.5328L148.247 75.5652Z" fill="#E7C4C3"/>
<path opacity="0.2" d="M148.247 75.5652C148.247 75.5652 147.786 76.7656 148.837 76.5735C149.305 76.031 149.625 75.3769 149.767 74.6745C149.767 74.6745 152.04 69.6928 152.712 69.2366C152.712 69.2366 155.675 65.1865 155.994 65.1265C155.994 65.1265 156.097 64.7327 155.063 65.5658C154.028 66.3989 151.762 69.6064 151.762 69.6064L149.601 73.1283L149.092 74.5328L148.247 75.5652Z" fill="white"/>
<path d="M112.535 99.9501C112.931 101.252 113.419 102.524 113.995 103.758C115.648 103.412 117.274 102.948 118.861 102.37C118.912 102.353 117.951 101.098 117.851 100.994C117.459 100.562 116.993 100.204 116.475 99.9381C115.968 99.7172 115.344 99.8852 114.794 99.914C114.045 99.9524 113.292 99.9645 112.535 99.9501Z" fill="#FBBEBE"/>
<path d="M116.484 101.921C115.659 101.662 115.154 100.829 114.818 100.027C114.482 99.225 114.211 98.3464 113.572 97.7606C113.451 97.779 113.336 97.8273 113.238 97.9011C113.14 97.9748 113.062 98.0717 113.01 98.1831C112.911 98.4081 112.799 98.6276 112.677 98.8409C112.413 99.225 111.956 99.4123 111.608 99.7388C111.26 100.065 111.066 100.562 110.703 100.891C110.247 101.304 109.604 101.407 109.006 101.544C108.08 101.754 107.186 102.085 106.346 102.529C106.037 102.715 105.706 102.863 105.361 102.97C104.982 103.044 104.593 103.057 104.209 103.009L101.568 102.821C101.333 102.791 101.094 102.801 100.862 102.85C100.595 102.948 100.368 103.131 100.216 103.371C100.064 103.611 99.9959 103.895 100.022 104.178C100.056 104.46 100.148 104.732 100.291 104.977C100.435 105.222 100.628 105.434 100.858 105.602C101.319 105.93 101.827 106.186 102.365 106.363C104.669 107.234 107.041 107.911 109.457 108.389V108.912C111.137 109.74 112.984 110.171 114.857 110.17C114.995 110.18 115.133 110.156 115.26 110.101C115.433 109.975 115.555 109.791 115.601 109.582C116.237 107.723 116.608 105.783 116.703 103.82C116.75 103.324 116.712 102.823 116.59 102.339C116.446 101.859 116.941 102.063 116.482 101.876" fill="#2F2E41"/>
<path d="M167.218 91.9482C159.375 92.4283 151.613 90.1212 143.772 89.8763C142.796 89.8146 141.815 89.8776 140.855 90.0636C139.847 90.2892 138.906 90.7454 137.974 91.1823C133.761 93.1414 129.406 94.7643 125.053 96.3849L120.054 98.2479C119.056 98.62 118.021 98.9969 116.957 98.9321C116.477 98.9033 115.894 98.8313 115.627 99.2274C114.814 100.428 115.198 102.202 115.735 103.549C115.908 103.986 116.216 104.461 116.672 104.509C117.001 104.543 117.308 104.353 117.632 104.269C118.542 104.029 119.449 104.639 120.386 104.737C121.543 104.86 122.616 104.202 123.708 103.799C125.519 103.129 127.499 103.15 129.403 102.838C132.596 102.305 135.554 100.824 138.32 99.1362C139.371 98.4928 140.437 97.8037 141.647 97.5685C143.037 97.2972 144.466 97.6549 145.832 98.0486C149.083 98.9681 152.284 100.058 155.421 101.314C157.072 101.976 158.715 102.685 160.434 103.143C164.152 104.121 168.085 103.891 171.664 102.488C172.918 101.991 174.284 101.114 174.356 99.7604C174.397 98.9873 173.796 98.3199 173.395 97.6477C173.141 97.2227 172.884 96.8002 172.603 96.3921C171.242 94.409 169.6 91.8065 167.218 91.9482Z" fill="#2F2E41"/>
<path opacity="0.1" d="M167.218 91.9482C159.375 92.4283 151.613 90.1212 143.772 89.8763C142.796 89.8146 141.815 89.8776 140.855 90.0636C139.847 90.2892 138.906 90.7454 137.974 91.1823C133.761 93.1414 129.406 94.7643 125.053 96.3849L120.054 98.2479C119.056 98.62 118.021 98.9969 116.957 98.9321C116.477 98.9033 115.894 98.8313 115.627 99.2274C114.814 100.428 115.198 102.202 115.735 103.549C115.908 103.986 116.216 104.461 116.672 104.509C117.001 104.543 117.308 104.353 117.632 104.269C118.542 104.029 119.449 104.639 120.386 104.737C121.543 104.86 122.616 104.202 123.708 103.799C125.519 103.129 127.499 103.15 129.403 102.838C132.596 102.305 135.554 100.824 138.32 99.1362C139.371 98.4928 140.437 97.8037 141.647 97.5685C143.037 97.2972 144.466 97.6549 145.832 98.0486C149.083 98.9681 152.284 100.058 155.421 101.314C157.072 101.976 158.715 102.685 160.434 103.143C164.152 104.121 168.085 103.891 171.664 102.488C172.918 101.991 174.284 101.114 174.356 99.7604C174.397 98.9873 173.796 98.3199 173.395 97.6477C173.141 97.2227 172.884 96.8002 172.603 96.3921C171.242 94.409 169.6 91.8065 167.218 91.9482Z" fill="black"/>
<path d="M127.593 100.332C128.819 100.75 130.058 101.134 131.309 101.487C132.008 100.339 133.316 99.5396 133.614 98.2287C133.626 98.1997 133.633 98.1684 133.632 98.1369C133.632 98.1053 133.625 98.0742 133.611 98.0456C133.598 98.017 133.578 97.9916 133.555 97.971C133.531 97.9505 133.503 97.9352 133.472 97.9262C132.578 97.4309 131.585 97.1398 130.565 97.0739C129.758 97.0235 129.391 97.8638 129.024 98.4568C128.877 98.6945 127.922 100.445 127.593 100.332Z" fill="#FBBEBE"/>
<path d="M129.321 99.4939C128.955 99.4319 128.605 99.2945 128.294 99.0904C127.983 98.8862 127.718 98.6198 127.516 98.3079C127.343 98.0054 127.158 97.5877 126.813 97.6189C126.467 97.6501 126.332 98.0246 126.27 98.3391C126.037 99.5296 125.699 100.697 125.259 101.828C124.818 102.96 124.07 103.948 123.099 104.68C122.642 104.994 122.138 105.232 121.692 105.563C121.291 105.858 120.943 106.233 120.491 106.461C120.196 106.598 119.891 106.712 119.579 106.802C119.121 106.964 118.683 107.177 118.273 107.438C117.913 107.646 117.608 107.938 117.385 108.288C117.272 108.465 117.205 108.669 117.192 108.879C117.179 109.089 117.22 109.298 117.31 109.488C117.405 109.644 117.532 109.777 117.682 109.88C117.832 109.982 118.003 110.052 118.182 110.084C118.539 110.146 118.904 110.156 119.264 110.113C120.693 110.007 122.121 109.873 123.55 109.753C124.154 109.716 124.754 109.636 125.346 109.512C125.66 109.436 125.965 109.337 126.277 109.256C126.811 109.118 127.359 109.038 127.91 109.016C128.071 109.003 128.233 109.017 128.39 109.059C128.721 109.167 128.954 109.496 129.297 109.563C129.516 109.584 129.737 109.554 129.943 109.476C130.971 109.196 132.054 109.203 133.117 109.145C133.597 109.121 134.135 109.032 134.351 108.612C134.62 108.089 134.173 107.503 133.998 106.932C133.909 106.572 133.859 106.204 133.849 105.834C133.768 104.921 133.5 104.035 133.062 103.23C132.699 102.562 132.202 101.823 132.457 101.105C132.543 100.865 132.716 100.625 132.697 100.385C132.615 99.2346 129.972 99.6308 129.321 99.4939Z" fill="#2F2E41"/>
<path d="M155.456 79.3656C154.068 78.7523 152.956 77.6464 152.335 76.2614C152.203 75.9637 152.095 75.654 151.971 75.3539C151.559 74.355 150.919 73.4662 150.103 72.7586C150.015 72.6627 149.908 72.5869 149.788 72.5363C149.668 72.4858 149.539 72.4617 149.409 72.4657C149.283 72.5039 149.17 72.5747 149.081 72.6709C148.991 72.767 148.929 72.8851 148.9 73.0131C148.828 73.2863 148.81 73.5709 148.847 73.851C148.917 74.5108 149.031 75.1653 149.188 75.81L149.567 77.541C149.614 77.8079 149.695 78.0676 149.807 78.3141C149.97 78.6058 150.186 78.8647 150.444 79.0775C150.792 79.3992 151.145 79.7089 151.502 80.0114C152.001 80.4887 152.65 80.7773 153.339 80.8277C154.895 81.1158 156.479 81.5335 157.795 82.5491C157.778 82.5491 157.795 81.3871 157.766 81.255C157.706 80.9069 157.658 80.5612 157.432 80.3259C156.916 79.7977 156.078 79.6465 155.456 79.3656Z" fill="#FBBEBE"/>
<path opacity="0.1" d="M155.456 79.3656C154.068 78.7523 152.956 77.6464 152.335 76.2614C152.203 75.9637 152.095 75.654 151.971 75.3539C151.559 74.355 150.919 73.4662 150.103 72.7586C150.015 72.6627 149.908 72.5869 149.788 72.5363C149.668 72.4858 149.539 72.4617 149.409 72.4657C149.283 72.5039 149.17 72.5747 149.081 72.6709C148.991 72.767 148.929 72.8851 148.9 73.0131C148.828 73.2863 148.81 73.5709 148.847 73.851C148.917 74.5108 149.031 75.1653 149.188 75.81L149.567 77.541C149.614 77.8079 149.695 78.0676 149.807 78.3141C149.97 78.6058 150.186 78.8647 150.444 79.0775C150.792 79.3992 151.145 79.7089 151.502 80.0114C152.001 80.4887 152.65 80.7773 153.339 80.8277C154.895 81.1158 156.479 81.5335 157.795 82.5491C157.778 82.5491 157.795 81.3871 157.766 81.255C157.706 80.9069 157.658 80.5612 157.432 80.3259C156.916 79.7977 156.078 79.6465 155.456 79.3656Z" fill="black"/>
<path d="M171.429 66.1108C172.483 66.1108 173.338 65.252 173.338 64.1926C173.338 63.1332 172.483 62.2744 171.429 62.2744C170.375 62.2744 169.521 63.1332 169.521 64.1926C169.521 65.252 170.375 66.1108 171.429 66.1108Z" fill="#2F2E41"/>
<path d="M170.248 63.033C169.732 62.9753 169.156 62.9345 168.74 63.2514C168.52 63.4453 168.344 63.6844 168.224 63.9525C167.797 64.6865 167.464 65.4713 167.232 66.2884C167.062 66.9895 167.033 67.7289 166.822 68.4108C166.431 69.688 165.429 70.7659 165.314 72.0984C165.264 72.6938 165.365 73.3924 164.928 73.8005C164.821 73.8902 164.707 73.9705 164.587 74.0406C164.285 74.2428 164.029 74.5062 163.835 74.8137C163.704 75.0899 163.524 75.3397 163.302 75.5507C162.913 75.8388 162.27 75.8076 162.078 76.2542C161.886 76.7007 162.38 77.2145 162.265 77.6946C162.172 78.0884 161.732 78.2684 161.43 78.5373C161.041 78.8806 160.863 79.3968 160.71 79.8914C160.072 80.012 159.415 79.9931 158.785 79.836C158.155 79.679 157.567 79.3874 157.06 78.9815C157.591 80.2923 157.603 81.74 157.627 83.1565C157.627 83.615 157.627 84.1312 157.291 84.4505C158.81 84.4841 160.292 84.8946 161.773 85.2308C162.421 85.3772 163.125 85.5044 163.727 85.2308C164.067 85.0477 164.371 84.8035 164.623 84.5105C165.429 83.6918 166.275 82.8011 166.471 81.6656C166.582 81.0318 166.471 80.3787 166.505 79.7449C166.579 78.9487 166.74 78.163 166.985 77.4017C167.412 75.8232 167.699 74.21 167.842 72.5809C167.929 71.5774 168.803 70.7683 169.254 69.868C170.118 68.1731 170.999 66.4061 171.064 64.5023C171.095 63.8732 170.879 63.1026 170.248 63.033Z" fill="#2F2E41"/>
<path opacity="0.1" d="M170.248 63.033C169.732 62.9753 169.156 62.9345 168.74 63.2514C168.52 63.4453 168.344 63.6844 168.224 63.9525C167.797 64.6865 167.464 65.4713 167.232 66.2884C167.062 66.9895 167.033 67.7289 166.822 68.4108C166.431 69.688 165.429 70.7659 165.314 72.0984C165.264 72.6938 165.365 73.3924 164.928 73.8005C164.821 73.8902 164.707 73.9705 164.587 74.0406C164.285 74.2428 164.029 74.5062 163.835 74.8137C163.704 75.0899 163.524 75.3397 163.302 75.5507C162.913 75.8388 162.27 75.8076 162.078 76.2542C161.886 76.7007 162.38 77.2145 162.265 77.6946C162.172 78.0884 161.732 78.2684 161.43 78.5373C161.041 78.8806 160.863 79.3968 160.71 79.8914C160.072 80.012 159.415 79.9931 158.785 79.836C158.155 79.679 157.567 79.3874 157.06 78.9815C157.591 80.2923 157.603 81.74 157.627 83.1565C157.627 83.615 157.627 84.1312 157.291 84.4505C158.81 84.4841 160.292 84.8946 161.773 85.2308C162.421 85.3772 163.125 85.5044 163.727 85.2308C164.067 85.0477 164.371 84.8035 164.623 84.5105C165.429 83.6918 166.275 82.8011 166.471 81.6656C166.582 81.0318 166.471 80.3787 166.505 79.7449C166.579 78.9487 166.74 78.163 166.985 77.4017C167.412 75.8232 167.699 74.21 167.842 72.5809C167.929 71.5774 168.803 70.7683 169.254 69.868C170.118 68.1731 170.999 66.4061 171.064 64.5023C171.095 63.8732 170.879 63.1026 170.248 63.033Z" fill="black"/>
<path d="M168.454 93.6C166.822 92.8221 165.626 91.3744 164.306 90.1332C161.785 87.766 158.7 86.0903 156.049 83.8695C154.292 82.4002 152.722 80.6861 150.792 79.4545C149.093 78.3746 147.168 77.7009 145.167 77.4858C144.937 77.4451 144.702 77.4565 144.478 77.5194C144.225 77.6314 144.004 77.8057 143.837 78.026C142.981 78.9913 142.221 80.0364 141.565 81.147C138.204 86.8489 133.432 91.6505 129.477 96.9491C129.353 97.0751 129.279 97.2428 129.27 97.4201C129.261 97.5973 129.318 97.7715 129.429 97.9094L130.234 99.4843C130.683 100.368 131.405 101.405 132.375 101.22C132.819 101.138 133.172 100.812 133.499 100.5L137.1 97.0499L140.886 93.4295C143.104 91.3096 145.359 89.1393 146.806 86.4288C147.935 88.3878 149.942 89.6699 151.317 91.4705C151.841 92.1523 152.278 92.9109 152.734 93.6312C153.483 94.7884 154.335 95.8759 155.185 96.9611L159.528 102.505C160.119 103.258 160.729 104.031 161.538 104.543C162.568 105.193 163.818 105.366 165.028 105.474C166.66 105.62 168.298 105.679 169.936 105.652C171.184 105.63 172.471 105.549 173.592 104.994C174.713 104.44 175.633 103.314 175.575 102.046C175.507 101.395 175.292 100.767 174.949 100.209C173.407 97.3524 171.379 94.9876 168.454 93.6Z" fill="#2F2E41"/>
<path d="M172.603 66.9967C173.413 66.9967 174.07 66.3356 174.07 65.5202C174.07 64.7047 173.413 64.0437 172.603 64.0437C171.793 64.0437 171.136 64.7047 171.136 65.5202C171.136 66.3356 171.793 66.9967 172.603 66.9967Z" fill="#E8E8F0"/>
<path d="M172.279 64.411C172.609 65.0683 172.667 65.829 172.44 66.5285C172.213 67.2187 171.896 67.8758 171.496 68.4828C171.153 69.1094 170.741 69.6963 170.27 70.233C172.533 70.3434 174.73 69.4551 176.728 68.3771C178.336 67.5129 179.94 66.4421 180.809 64.824C180.554 64.8858 180.288 64.8932 180.029 64.8457C179.771 64.7981 179.525 64.6966 179.309 64.5479C178.877 64.2469 178.491 63.8864 178.161 63.4771L177.023 62.1975C176.756 61.9194 176.522 61.6117 176.324 61.2804C176.078 60.8271 175.973 60.3102 176.024 59.7967C175.573 60.2699 175.067 60.6888 174.519 61.0451C173.707 61.5733 172.812 61.9574 171.998 62.4856C171.71 62.6704 171.067 62.9657 171.232 63.3475C171.398 63.7292 172.056 64.0077 172.279 64.411Z" fill="#FBBEBE"/>
<path opacity="0.1" d="M172.279 64.411C172.609 65.0683 172.667 65.829 172.44 66.5285C172.213 67.2187 171.896 67.8758 171.496 68.4828C171.153 69.1094 170.741 69.6963 170.27 70.233C172.533 70.3434 174.73 69.4551 176.728 68.3771C178.336 67.5129 179.94 66.4421 180.809 64.824C180.554 64.8858 180.288 64.8932 180.029 64.8457C179.771 64.7981 179.525 64.6966 179.309 64.5479C178.877 64.2469 178.491 63.8864 178.161 63.4771L177.023 62.1975C176.756 61.9194 176.522 61.6117 176.324 61.2804C176.078 60.8271 175.973 60.3102 176.024 59.7967C175.573 60.2699 175.067 60.6888 174.519 61.0451C173.707 61.5733 172.812 61.9574 171.998 62.4856C171.71 62.6704 171.067 62.9657 171.232 63.3475C171.398 63.7292 172.056 64.0077 172.279 64.411Z" fill="black"/>
<path d="M172.31 64.6343C171.885 65.3546 171.794 66.1949 172.31 66.8479C172.375 66.9295 172.613 67.4337 172.716 67.4385C172.816 67.4285 172.908 67.3814 172.975 67.3064C173.525 66.8047 173.936 66.1636 174.416 65.5947C174.896 65.0257 175.508 64.5095 176.243 64.3943C177.129 64.2574 177.986 64.7256 178.761 65.1793C179.098 65.3438 179.393 65.5846 179.621 65.8828C179.784 66.1783 179.881 66.5061 179.904 66.8431C180.17 68.8621 180.166 70.9076 180.158 72.9435C180.158 74.4176 180.158 75.8989 179.87 77.3442C179.726 78.0932 179.51 78.8255 179.407 79.5793C179.333 80.2448 179.303 80.9145 179.318 81.584V84.3881C179.299 84.9027 179.335 85.4178 179.426 85.9246C179.558 86.5392 179.849 87.1058 180.043 87.7036C180.244 88.3906 180.381 89.0946 180.454 89.8067L180.838 92.7093C180.958 93.624 181.047 94.6299 180.495 95.3502C180.254 95.6815 179.916 95.948 179.664 96.2793C178.704 97.5133 179.018 99.2779 178.622 100.788C178.31 101.893 177.669 102.878 176.783 103.609C176.104 104.185 175.227 104.636 174.356 104.476C173.177 104.257 172.469 103.035 172.147 101.866C171.825 100.697 171.71 99.4411 171.014 98.4616C170.445 97.6597 169.573 97.1556 168.767 96.5842C167.96 96.0128 167.192 95.2757 167.019 94.3058C166.942 93.8833 166.99 93.4487 166.944 93.0214C166.882 92.4797 166.674 91.9649 166.344 91.5311C166.014 91.0972 165.572 90.7603 165.067 90.5558C164.464 90.3157 163.72 90.2365 163.386 89.6843C164.265 89.1897 164.846 88.275 165.153 87.3123C165.461 86.3496 165.523 85.3268 165.583 84.3185L165.785 80.9454C165.874 79.4377 165.915 77.9444 166.58 76.5903C166.875 75.9829 167.245 75.4163 167.554 74.8185C167.963 73.9773 168.312 73.1085 168.599 72.2185C169.079 70.8356 169.559 69.4527 169.991 68.0531C170.163 67.3769 170.42 66.7252 170.755 66.1132C171.095 65.5274 171.628 64.7616 172.31 64.6343Z" fill="#C51333"/>
<path d="M164.82 86.5488L165.713 86.58L165.902 85.2332C165.927 84.963 165.99 84.6978 166.09 84.4457C166.238 84.18 166.41 83.9284 166.604 83.6943C167.482 82.453 167.417 80.8133 167.636 79.2984C167.926 77.2865 168.767 75.4043 169.597 73.5533L171.335 69.6904C171.68 69.0342 171.845 68.2989 171.816 67.5585C171.832 66.9607 172.008 64.7904 172.025 64.1974C172.025 63.9765 171.544 64.0989 171.436 63.9021C171.22 63.4723 170.923 64.6367 170.517 64.8912C170.111 65.1457 169.885 65.6114 169.715 66.058C169.34 67.0303 169.112 68.053 168.755 69.035C168.397 70.0169 167.922 70.982 167.136 71.6759C166.781 71.988 166.373 72.2328 166.037 72.5666C164.959 73.6325 164.853 75.3155 164.815 76.8352C164.796 77.7259 164.613 86.5488 164.82 86.5488Z" fill="#2F2E41"/>
<path d="M177.669 63.0234C176.802 63.3643 176.327 64.3054 176.084 65.2081C175.842 66.1108 175.741 67.0759 175.275 67.885C174.185 69.7792 171.41 70.3314 170.644 72.3793C170.404 73.0491 170.404 73.7837 170.334 74.4968C170.195 75.9637 169.712 77.3777 169.571 78.847C169.495 79.9867 169.522 81.1308 169.65 82.2658L170.61 93.8352C170.752 95.5158 170.747 97.2996 170.32 98.9225C171.302 99.1122 172.325 98.8577 173.234 98.4424C174.144 98.027 174.977 97.4556 175.854 96.9731C177.361 96.14 179.025 95.5518 180.346 94.4426C180.585 94.2565 180.79 94.0298 180.951 93.7728C181.215 93.3167 181.239 92.7621 181.364 92.2483C181.477 91.8376 181.623 91.4363 181.798 91.0479C182.282 89.8818 182.703 88.691 183.061 87.4803C183.307 86.6774 183.5 85.8594 183.639 85.0315C183.745 84.3737 183.803 83.7063 183.86 83.0412C183.931 81.9992 184.137 80.9709 184.475 79.9826C185.319 77.6268 185.797 75.1558 185.894 72.6554C185.921 72.2943 185.896 71.9313 185.819 71.5774C185.671 71.1483 185.475 70.7376 185.234 70.353C184.83 69.5944 184.588 68.7589 184.208 67.9858C183.349 66.2452 181.829 64.9224 180.24 63.8156C179.467 63.2754 178.555 62.6777 177.669 63.0234Z" fill="#2F2E41"/>
<path d="M157.389 81.8985C156.7 81.5366 156.076 81.0619 155.543 80.494C155.303 80.2107 155.101 79.8914 154.854 79.6129C154.231 78.9469 153.421 78.485 152.53 78.2877C151.647 78.0937 150.743 78.0058 149.839 78.026C149.234 77.9874 148.626 78.0607 148.048 78.2421C147.758 78.3367 147.498 78.5034 147.29 78.7263C147.083 78.9493 146.935 79.2213 146.862 79.5169C146.73 80.2371 147.2 80.9357 147.764 81.3991C148.29 81.8278 148.908 82.1278 149.57 82.2754C150.109 82.3687 150.654 82.432 151.2 82.4651C154.412 82.8012 157.279 84.5489 160.083 86.1407C162.556 87.5411 165.076 88.8488 167.643 90.0636C167.744 89.2941 167.787 88.518 167.77 87.742C167.756 87.1634 167.727 86.2799 167.18 85.939C166.544 85.5429 165.499 85.4589 164.779 85.2188C163.124 84.6762 161.508 84.0225 159.941 83.2621C159.075 82.838 158.225 82.3834 157.389 81.8985Z" fill="#FBBEBE"/>
<path d="M177.115 59.5861C177.923 56.5123 176.1 53.369 173.043 52.5653C169.986 51.7615 166.852 53.6018 166.044 56.6756C165.236 59.7493 167.059 62.8927 170.116 63.6964C173.173 64.5002 176.307 62.6599 177.115 59.5861Z" fill="#FBBEBE"/>
<path d="M179.306 69.5488C178.795 70.1442 178.538 70.9124 178.195 71.6183C177.489 73.0732 176.379 74.3216 175.825 75.8437C175.239 77.4474 175.258 79.3536 174.111 80.6141C173.911 80.8325 173.671 81.0438 173.614 81.3343C173.606 81.5107 173.586 81.6864 173.554 81.8601C173.39 82.3162 172.641 82.3402 172.502 82.806C172.461 82.9428 172.483 83.0917 172.433 83.2261C172.317 83.5262 171.921 83.5718 171.655 83.7543C171.098 84.1312 171.211 85.0051 170.814 85.5501C170.641 85.754 170.415 85.9079 170.162 85.9956C169.909 86.0834 169.637 86.102 169.374 86.0495C168.854 85.9427 168.353 85.7556 167.89 85.4949C167.726 85.4036 167.544 85.3472 167.357 85.3292C167.135 85.3363 166.921 85.4089 166.74 85.5381C165.684 86.2103 165.187 87.5428 165.194 88.8008C165.201 90.0588 165.634 91.2688 166.075 92.4452C166.136 92.6435 166.236 92.8279 166.368 92.9878C166.719 93.3575 167.328 93.2999 167.794 93.0934C168.26 92.8869 168.683 92.5628 169.182 92.4716C170.068 92.3107 170.934 92.9206 171.823 92.8701C172.481 92.8317 173.064 92.45 173.609 92.0803C174.483 91.4897 175.371 90.8799 176.01 90.0444C176.403 89.5306 176.692 88.9472 177.035 88.3975C177.474 87.7276 177.955 87.0861 178.475 86.4768L181.774 82.4387C182.105 82.0563 182.402 81.6458 182.662 81.2119C182.963 80.6257 183.195 80.0071 183.354 79.368C183.668 78.2901 183.985 77.2073 184.038 76.0814C184.056 75.1575 183.976 74.2344 183.798 73.3276C183.684 72.4239 183.442 71.541 183.078 70.706C182.398 69.2079 180.653 67.9763 179.306 69.5488Z" fill="#2F2E41"/>
<path d="M189.284 66.9799C189.548 65.9945 189.574 64.9604 189.361 63.9628C189.147 62.9652 188.699 62.0327 188.055 61.242C188.931 57.5039 187.022 53.7611 183.661 52.3758C183.781 48.8706 181.561 45.6536 178.139 44.7509C174.584 43.817 170.937 45.6944 169.403 49.0315C167.242 47.9103 164.957 48.0304 164.203 49.3484C163.415 50.7265 164.599 52.8944 166.844 54.1884C167.551 54.6019 168.325 54.8887 169.132 55.0359C169.478 56.0151 170.025 56.9111 170.738 57.6661C171.452 58.4211 172.315 59.0185 173.273 59.4198C173.214 60.837 173.551 62.2426 174.246 63.4788C174.942 64.715 175.968 65.7329 177.21 66.4181C177.346 67.4032 177.71 68.3429 178.274 69.1622C178.208 69.3341 178.152 69.5096 178.106 69.688C177.4 72.3649 178.927 75.0874 181.513 75.7668C184.098 76.4462 186.768 74.8281 187.471 72.1512C187.66 71.4376 187.693 70.6915 187.567 69.9641C188.397 69.1415 188.99 68.1107 189.284 66.9799Z" fill="#3F3D56"/>
<path opacity="0.1" d="M165.684 50.0446C166.438 48.7266 168.721 48.6042 170.884 49.7277C172.413 46.3906 176.065 44.5108 179.62 45.4471C179.781 45.4879 179.94 45.5383 180.101 45.5912C179.493 45.2161 178.832 44.933 178.142 44.7509C174.586 43.817 170.939 45.6944 169.405 49.0315C167.244 47.9103 164.959 48.0304 164.205 49.3484C163.417 50.7265 164.601 52.8944 166.846 54.1884C167.267 54.4309 167.711 54.6319 168.171 54.7886C166.025 53.4778 164.916 51.3891 165.684 50.0446Z" fill="black"/>
<path opacity="0.1" d="M179.589 70.3843C179.635 70.2059 179.691 70.0304 179.757 69.8585C179.194 69.0383 178.83 68.0978 178.694 67.112C177.452 66.4274 176.426 65.41 175.73 64.1741C175.035 62.9383 174.697 61.5329 174.757 60.116C173.799 59.7147 172.935 59.1174 172.222 58.3624C171.509 57.6074 170.961 56.7114 170.615 55.7322C170.145 55.6483 169.686 55.5139 169.244 55.3312C169.611 56.2447 170.156 57.076 170.847 57.7767C171.538 58.4774 172.362 59.0335 173.271 59.4126C173.211 60.8298 173.549 62.2354 174.244 63.4716C174.94 64.7078 175.966 65.7257 177.208 66.4109C177.344 67.396 177.708 68.3358 178.271 69.155C178.205 69.3269 178.149 69.5025 178.103 69.6808C177.4 72.3481 178.915 75.061 181.486 75.7524C180.662 75.1565 180.039 74.3235 179.7 73.3644C179.361 72.4053 179.322 71.3658 179.589 70.3843Z" fill="black"/>
<path d="M174.048 60.1114C174.436 59.8171 174.43 59.1582 174.037 58.6398C173.643 58.1213 173.01 57.9397 172.622 58.234C172.235 58.5284 172.24 59.1872 172.633 59.7057C173.027 60.2241 173.661 60.4057 174.048 60.1114Z" fill="#FBBEBE"/>
<path d="M103.667 9.44473C105.826 9.44473 107.577 7.69376 107.577 5.53383C107.577 3.37389 105.826 1.62292 103.667 1.62292C101.507 1.62292 99.7556 3.37389 99.7556 5.53383C99.7556 7.69376 101.507 9.44473 103.667 9.44473Z" fill="#3F3D56"/>
<path d="M112.153 28.4255C118.211 28.4255 123.123 22.0622 123.123 14.2127C123.123 6.36326 118.211 0 112.153 0C106.095 0 101.184 6.36326 101.184 14.2127C101.184 22.0622 106.095 28.4255 112.153 28.4255Z" fill="#3F3D56"/>
<path opacity="0.1" d="M112.153 24.1328C106.658 24.1328 102.106 18.8967 101.306 12.0664C101.223 12.7788 101.182 13.4955 101.182 14.2127C101.182 22.0609 106.094 28.4255 112.153 28.4255C118.213 28.4255 123.123 22.0609 123.123 14.2127C123.123 13.4955 123.081 12.7788 122.998 12.0664C122.201 18.9063 117.649 24.1328 112.153 24.1328Z" fill="black"/>
<path d="M135.528 55.8378C135.288 56.7981 134.277 57.5808 133.153 58.121C130.786 59.2613 127.871 59.5998 125.041 59.7151C124.321 59.7588 123.598 59.7451 122.88 59.6743C121.399 59.499 120.026 58.8676 119.169 57.9673C119.046 57.869 118.962 57.7317 118.928 57.5784C118.934 57.4864 118.959 57.3965 119 57.314C119.041 57.2316 119.099 57.1582 119.169 57.0982C120.679 55.4513 123.195 54.4381 125.72 53.7179C127.641 53.1633 130.988 51.7276 133.084 51.9221C135.119 52.0973 135.825 54.6134 135.528 55.8378Z" fill="#3F3D56"/>
<path opacity="0.1" d="M135.528 55.8378C135.288 56.7981 134.277 57.5808 133.153 58.121C130.786 59.2613 127.871 59.5998 125.041 59.7151C124.321 59.7588 123.598 59.7451 122.88 59.6743C121.399 59.499 120.026 58.8676 119.169 57.9673C119.046 57.869 118.962 57.7317 118.928 57.5784C118.934 57.4864 118.959 57.3965 119 57.314C119.041 57.2316 119.099 57.1582 119.169 57.0982C120.679 55.4513 123.195 54.4381 125.72 53.7179C127.641 53.1633 130.988 51.7276 133.084 51.9221C135.119 52.0973 135.825 54.6134 135.528 55.8378Z" fill="black"/>
<path d="M105.455 48.6017C104.735 50.0143 104.605 51.6547 105.093 53.1633C105.59 54.6633 106.522 55.9819 107.769 56.9517C110.835 59.4125 115.041 59.7511 118.962 59.7198C122.4 59.6889 125.832 59.4532 129.242 59.014C130.378 58.8676 131.525 58.6947 132.577 58.241C133.856 57.6864 134.978 56.6708 135.436 55.36C135.895 54.0492 135.571 52.4262 134.476 51.5475C133.516 50.7745 132.212 50.6688 130.99 50.5872L123.992 50.1671C124.683 49.466 125.603 49.0699 126.445 48.5633C127.562 47.8863 128.303 46.7531 129.117 45.7328C130.318 44.2059 131.758 42.871 133.199 41.5434C133.439 42.8494 134.253 43.9226 135.225 44.8253C136.197 45.728 137.318 46.453 138.332 47.3101C140.78 49.3892 142.543 52.2125 145.119 54.1332C146.891 53.6672 148.548 52.84 149.985 51.7036L148.984 49.891C148.902 49.7011 148.772 49.5357 148.607 49.4108C148.321 49.238 147.956 49.3268 147.627 49.2788C146.749 49.1467 146.365 48.1312 146.019 47.3125C145.073 45.0606 143.258 43.3152 141.697 41.4282C140.559 40.037 139.551 38.5447 138.684 36.9699C138.164 36.0312 137.688 35.0492 136.98 34.2402C136.272 33.4311 135.285 32.7997 134.209 32.7997C133.249 32.7997 132.385 33.2798 131.569 33.76C129.082 35.2374 126.689 36.8674 124.405 38.6408C123.204 39.5675 122.021 40.5495 120.618 41.1185C120.028 41.3585 119.418 41.5218 118.839 41.8123C117.848 42.3237 117.094 43.1879 116.283 43.9538C113.392 46.6883 109.433 48.4601 105.455 48.6017Z" fill="#605D82"/>
<path d="M120.09 29.1313C120.059 29.9681 119.881 30.7929 119.565 31.5681C119.404 31.9532 119.166 32.3012 118.866 32.5903C118.565 32.8795 118.208 33.1036 117.817 33.2486C117.26 33.3978 116.677 33.4167 116.112 33.3039C115.619 33.2506 115.143 33.0865 114.722 32.8237C114.067 32.3723 113.74 31.5681 113.62 30.7806C113.5 29.9932 113.555 29.1889 113.479 28.3966C113.404 27.7563 113.282 27.1224 113.114 26.5C113.063 26.2935 113.01 26.0871 112.958 25.8806C112.905 25.6741 112.859 25.4676 112.813 25.2612C112.768 25.0547 112.732 24.8747 112.698 24.6778C112.665 24.4809 112.645 24.3465 112.629 24.1808C112.613 23.6858 112.533 23.195 112.389 22.7211C112.252 22.4144 112.08 22.1244 111.877 21.8568C111.791 21.732 111.707 21.6168 111.637 21.4799C111.414 21.1454 111.31 20.7453 111.342 20.3443C111.351 20.2822 111.366 20.2211 111.387 20.1619C111.395 20.1389 111.404 20.1165 111.414 20.0947C111.499 20.0712 111.578 20.0272 111.643 19.9665C111.708 19.9059 111.757 19.8304 111.786 19.7465C111.819 19.5656 111.803 19.3792 111.74 19.2064C111.67 18.9649 111.572 18.7322 111.45 18.5125C111.371 18.3685 111.099 18.1068 111.097 17.9411C111.097 17.6074 111.745 17.3385 112.009 17.2065C112.816 16.8019 113.716 16.6195 114.616 16.6783C115.193 16.7167 115.817 16.8944 116.136 17.3794C116.424 17.8139 116.376 18.3781 116.508 18.8847C116.519 18.9586 116.55 19.0283 116.597 19.0863C116.66 19.1433 116.739 19.1794 116.823 19.1896C116.963 19.2179 117.108 19.2236 117.25 19.2064C117.288 19.2043 117.326 19.1987 117.363 19.1896C117.585 19.1485 117.795 19.0583 117.978 18.9255C118.098 18.8919 118.218 18.8679 118.335 18.8462H118.35C118.83 20.3539 118.89 21.9673 119.281 23.5086C119.476 24.2721 119.761 25.0259 119.793 25.8134C119.793 25.847 119.793 25.883 119.793 25.9166C119.793 26.1711 119.778 26.4256 119.793 26.6776C119.797 26.7905 119.81 26.9028 119.831 27.0138C119.874 27.1925 119.927 27.3688 119.989 27.5419C120.006 27.5972 120.023 27.6524 120.037 27.71C120.049 27.7502 120.059 27.7911 120.066 27.8324C120.137 28.262 120.145 28.6994 120.09 29.1313Z" fill="#FBBEBE"/>
<path d="M113.397 19.2688C116.505 19.2688 119.024 16.7493 119.024 13.6413C119.024 10.5334 116.505 8.01385 113.397 8.01385C110.289 8.01385 107.77 10.5334 107.77 13.6413C107.77 16.7493 110.289 19.2688 113.397 19.2688Z" fill="#FBBEBE"/>
<path d="M149.128 44.3044C148.964 42.7705 148.418 41.3022 147.541 40.0333L147.98 42.6382C147.798 42.6904 147.605 42.6885 147.423 42.6326C147.242 42.5768 147.081 42.4695 146.96 42.3237C146.723 42.0277 146.541 41.6909 146.425 41.3298C145.785 39.7428 144.949 38.2425 143.935 36.8643C140.353 36.5642 136.809 35.0805 133.66 33.3471C130.51 31.6137 127.559 29.5419 124.448 27.7389C123.908 27.4135 123.347 27.1263 122.767 26.8794C121.795 26.4904 120.702 26.2888 119.781 25.8302L119.596 25.7318C119.387 25.6197 119.189 25.4878 119.005 25.3381C118.906 25.2565 118.813 25.1691 118.724 25.0764C118.264 24.5415 117.898 23.9317 117.644 23.2734C117.149 22.1786 116.972 20.8558 116.479 19.761C116.707 19.5496 116.961 19.3696 117.236 19.2256L117.356 19.1656C117.551 19.0743 117.755 19.0004 117.963 18.9447C118.083 18.9111 118.203 18.8871 118.321 18.8655H118.335C118.893 18.7756 119.465 18.8208 120.001 18.9975C120.784 19.264 121.442 19.7922 122.105 20.294C123.149 21.0838 124.234 21.8281 125.182 22.7332C125.725 23.2542 126.222 23.8255 126.805 24.2985C127.292 24.674 127.804 25.0142 128.339 25.3164L137.832 30.9703C138.903 31.6065 139.976 32.2452 141.023 32.9222C142.615 33.9473 144.144 35.0589 145.68 36.1705L148.391 38.1343C148.688 38.3267 148.948 38.5707 149.159 38.8545C149.345 39.1729 149.46 39.5274 149.498 39.8941C149.723 41.3728 149.596 42.8838 149.128 44.3044Z" fill="#FBBEBE"/>
<path d="M121.488 33.3639C121.106 35.0661 119.387 36.096 118.487 37.5917C117.368 39.4475 117.824 41.6058 118.247 43.733L115.944 45.716C115.522 46.0785 115.097 46.4363 114.643 46.7652C113.977 47.2125 113.282 47.6136 112.562 47.9656L110.526 49.0123C109.894 49.3672 109.225 49.6506 108.531 49.8574C107.191 50.2007 105.77 49.9606 104.449 49.5645C104.293 49.5238 104.143 49.4624 104.003 49.382C103.92 49.3325 103.849 49.2672 103.791 49.19C103.66 48.956 103.612 48.684 103.657 48.4193C103.791 46.1914 104.336 44.009 104.879 41.8435C105.164 40.543 105.55 39.2667 106.034 38.0263C106.51 36.9644 107.058 35.9361 107.673 34.9484C108.394 33.7312 109.114 32.5044 110.074 31.4601C110.485 31.0087 110.943 30.5814 111.188 30.0196C111.527 29.2465 111.395 28.3606 111.464 27.5204C111.516 26.8878 111.684 26.2702 111.959 25.6982C112.106 25.3903 112.283 25.0976 112.487 24.8243C112.581 25.0403 112.672 25.2564 112.766 25.4701L112.946 25.8926C113.025 26.0727 113.102 26.2551 113.186 26.4352C113.41 26.9506 113.632 27.4667 113.853 27.9837C114.091 28.6349 114.433 29.2436 114.864 29.7867C115.322 30.3053 115.997 30.6822 116.684 30.6078C117.006 30.554 117.313 30.4292 117.581 30.2423C117.849 30.0554 118.072 29.8113 118.235 29.5274C118.556 28.9589 118.789 28.3443 118.924 27.7052C119.113 26.9275 119.139 26.1191 119 25.3308C118.76 23.8111 118.124 22.2602 117.656 20.8485C117.465 20.3782 117.355 19.8791 117.329 19.372C117.329 19.3148 117.335 19.2577 117.346 19.2016V19.1584C117.542 19.0671 117.745 18.9931 117.954 18.9375C118.074 18.9039 118.194 18.8799 118.311 18.8583C118.724 21.099 119.138 23.335 119.553 25.5661C119.553 25.6189 119.574 25.6717 119.584 25.7246C119.641 26.0463 119.701 26.3656 119.769 26.6849C119.836 27.0042 119.894 27.2635 119.966 27.5492C119.99 27.6452 120.016 27.7436 120.042 27.8397C120.117 28.1038 120.198 28.363 120.282 28.6223C120.868 30.19 121.845 31.753 121.488 33.3639Z" fill="#C51333"/>
<path d="M144.329 57.2927C144.308 57.6233 144.372 57.9537 144.514 58.253C144.864 58.8964 145.714 59.0428 146.434 59.1029C150.706 59.455 155.005 59.3246 159.247 58.7139C159.478 58.6971 159.701 58.6273 159.9 58.5099C160.503 58.0873 160.14 57.0574 159.473 56.7261C158.806 56.3948 158.033 56.486 157.312 56.3347C156.594 56.1531 155.91 55.8563 155.286 55.456C153.822 54.6142 152.381 53.7339 150.965 52.8152C150.117 52.2702 149.116 51.6892 148.163 52.0133C145.572 52.8872 144.31 54.5053 144.329 57.2927Z" fill="#2F2E41"/>
<path d="M112.835 25.1484L112.813 25.266L112.777 25.4629C112.66 26.0679 112.513 26.6633 112.348 27.2707C111.889 28.9248 111.277 30.555 110.667 32.1587L105.767 45.075C105.354 46.1602 104.944 47.2357 104.476 48.3065C104.319 48.6594 104.159 49.0267 103.995 49.3772C103.422 50.6665 102.869 51.9989 102.687 53.3746C102.567 54.2845 102.447 55.2136 102.627 56.1139C102.807 57.0142 103.347 57.8953 104.214 58.2266C104.632 58.3898 105.229 58.6083 105.114 59.0429C105.054 59.2829 104.783 59.3982 104.538 59.4366C104.217 59.4884 103.888 59.4685 103.576 59.3784C103.263 59.2884 102.974 59.1303 102.73 58.9156C102.274 58.5123 101.921 57.8809 101.314 57.8136C100.894 57.768 100.507 58.0201 100.113 58.1954C98.5407 58.9156 96.7113 58.4114 95.0596 57.9001C95.1892 57.2327 95.8614 56.7909 96.5265 56.6589C97.1915 56.5268 97.8829 56.618 98.5647 56.6012C98.7828 56.6126 98.9991 56.5565 99.1841 56.4404C99.3513 56.2909 99.4707 56.0955 99.5275 55.8786C99.965 54.5804 100.29 53.2471 100.5 51.8933C100.721 50.4768 100.812 49.0411 101.124 47.6439C101.364 46.5539 101.743 45.4975 102.065 44.4268C102.69 42.2231 103.202 39.9891 103.599 37.7334C103.801 36.7971 103.945 35.8494 104.031 34.8956C104.087 34.1034 104.06 33.3063 104.137 32.5188C104.264 31.4928 104.478 30.4792 104.776 29.489C105.069 28.4063 105.359 27.3283 105.652 26.2479C106.084 24.649 106.547 22.9901 107.642 21.7488C108.022 21.3114 108.488 20.9567 109.011 20.7068C109.534 20.4569 110.102 20.3172 110.682 20.2964C110.899 20.2954 111.115 20.3187 111.327 20.366L111.433 20.3924C111.665 20.4521 111.887 20.5442 112.093 20.6661C112.432 20.45 112.602 20.5268 112.828 20.8557C113.024 21.207 113.116 21.6065 113.094 22.0081C113.112 23.0609 113.025 24.1127 112.835 25.1484Z" fill="#FBBEBE"/>
<path d="M113.205 26.4232L113.19 26.4376L113.114 26.5144L112.348 27.2803L111.971 25.7006L110.682 20.2892C110.899 20.2882 111.115 20.3115 111.327 20.3588C111.337 20.2966 111.352 20.2355 111.373 20.1763L111.433 20.3852L111.87 21.8713L112.698 24.6922L112.835 25.158L113.205 26.4232Z" fill="#C51333"/>
<path d="M117.505 5.3418H111.056C109.465 5.3418 108.175 6.63165 108.175 8.22276V10.093C108.175 11.6841 109.465 12.9739 111.056 12.9739H117.505C119.096 12.9739 120.386 11.6841 120.386 10.093V8.22276C120.386 6.63165 119.096 5.3418 117.505 5.3418Z" fill="#3F3D56"/>
<path d="M121.099 9.44473C123.259 9.44473 125.01 7.69376 125.01 5.53383C125.01 3.37389 123.259 1.62292 121.099 1.62292C118.939 1.62292 117.188 3.37389 117.188 5.53383C117.188 7.69376 118.939 9.44473 121.099 9.44473Z" fill="#3F3D56"/>
<path opacity="0.1" d="M121.005 1.62054H120.861C121.868 1.6638 122.82 2.09437 123.517 2.82239C124.215 3.55042 124.604 4.51966 124.604 5.52784C124.604 6.53603 124.215 7.50527 123.517 8.2333C122.82 8.96132 121.868 9.39189 120.861 9.43515H121.005C122.042 9.43515 123.037 9.0231 123.771 8.28967C124.504 7.55623 124.916 6.56148 124.916 5.52424C124.916 4.48701 124.504 3.49225 123.771 2.75882C123.037 2.02538 122.042 1.61334 121.005 1.61334V1.62054Z" fill="black"/>
<path opacity="0.1" d="M103.667 1.62054H103.811C102.803 1.6638 101.852 2.09437 101.154 2.82239C100.457 3.55042 100.067 4.51966 100.067 5.52784C100.067 6.53603 100.457 7.50527 101.154 8.2333C101.852 8.96132 102.803 9.39189 103.811 9.43515H103.667C103.153 9.43515 102.644 9.33399 102.17 9.13745C101.695 8.9409 101.264 8.65283 100.901 8.28967C100.538 7.92651 100.25 7.49537 100.053 7.02088C99.8568 6.54639 99.7556 6.03783 99.7556 5.52424C99.7556 5.01066 99.8568 4.5021 100.053 4.02761C100.25 3.55312 100.538 3.12198 100.901 2.75882C101.264 2.39566 101.695 2.10758 102.17 1.91104C102.644 1.7145 103.153 1.61334 103.667 1.61334V1.62054Z" fill="black"/>
<path opacity="0.1" d="M120.506 12.2081H110.595C110.292 12.2081 110.001 12.0878 109.786 11.8735C109.572 11.6593 109.451 11.3686 109.45 11.0653V11.8264C109.451 12.1299 109.571 12.4208 109.786 12.6354C110.001 12.8501 110.292 12.9709 110.595 12.9715H120.515C120.819 12.9709 121.11 12.8501 121.324 12.6354C121.539 12.4208 121.66 12.1299 121.66 11.8264V11.0653C121.66 11.2162 121.629 11.3655 121.571 11.5047C121.513 11.6438 121.427 11.7701 121.32 11.8762C121.213 11.9824 121.086 12.0663 120.946 12.1233C120.806 12.1802 120.657 12.209 120.506 12.2081Z" fill="black"/>
<path d="M154.126 52.2414C154.126 52.2414 154.746 52.3494 154.847 51.8476C154.897 51.6075 154.727 50.0662 154.532 48.5249C154.438 47.7663 154.338 47.01 154.256 46.405C154.158 45.6632 154.086 45.1518 154.086 45.1518L153.973 44.7773L153.305 42.5349L152.676 40.4222L152.213 39.5916L148.878 41.2145L146.804 44.7989L147.447 45.2046L147.56 45.2766L148.744 46.5155L152.062 49.9966L153.555 51.5643L153.73 51.7468L154.126 52.2414Z" fill="#FFE09C"/>
<path d="M151.505 38.1655C151.505 38.1655 147.851 39.8797 146.972 41.7427C146.972 41.7427 146.151 43.3104 146.048 44.1435C146.048 44.1435 145.808 44.9046 147.323 45.0918C147.323 45.0918 148.012 42.2949 150.079 41.0801L152.148 39.8677L151.505 38.1655Z" fill="#E7C4C3"/>
<path d="M152.457 42.4687C152.635 41.8037 152.323 41.1423 151.76 40.9913C151.196 40.8403 150.595 41.2569 150.417 41.9219C150.239 42.5868 150.551 43.2483 151.114 43.3993C151.678 43.5503 152.279 43.1336 152.457 42.4687Z" fill="#FF7F8E"/>
<path d="M152.061 46.8153C152.237 46.1529 151.925 45.4947 151.364 45.3452C150.803 45.1957 150.205 45.6115 150.028 46.2738C149.852 46.9362 150.164 47.5944 150.725 47.7439C151.286 47.8935 151.884 47.4777 152.061 46.8153Z" fill="#FF7F8E"/>
<path d="M148.744 46.5155C148.935 46.4378 149.106 46.3156 149.24 46.159C149.375 46.0025 149.471 45.8161 149.519 45.6152C149.697 44.9526 149.385 44.2924 148.823 44.1435C148.261 43.9947 147.664 44.41 147.488 45.0726C147.474 45.1174 147.464 45.1631 147.457 45.2095L147.57 45.2815L148.744 46.5155Z" fill="#FF7F8E"/>
<path d="M153.207 44.9142C153.339 44.9474 153.476 44.9525 153.61 44.9289C153.743 44.9053 153.87 44.8536 153.983 44.7773L153.315 42.535C153.116 42.6088 152.939 42.7304 152.798 42.8891C152.657 43.0477 152.558 43.2386 152.508 43.4449C152.333 44.1147 152.645 44.7653 153.207 44.9142Z" fill="#FF7F8E"/>
<path d="M153.594 48.7938C153.761 48.8335 153.937 48.8296 154.103 48.7825C154.269 48.7354 154.42 48.6468 154.542 48.5249C154.448 47.7663 154.347 47.01 154.266 46.405H154.235C153.673 46.2538 153.075 46.6715 152.897 47.3342C152.72 47.9968 153.034 48.645 153.594 48.7938Z" fill="#FF7F8E"/>
<path d="M153.555 51.5571C153.624 51.4409 153.677 51.3157 153.711 51.185C153.889 50.5224 153.577 49.8646 153.015 49.7157C152.845 49.6745 152.667 49.6781 152.499 49.7261C152.33 49.774 152.177 49.8648 152.055 49.9894L153.555 51.5571Z" fill="#FF7F8E"/>
<path d="M151.906 41.517L152.29 41.6203C152.139 41.8981 152.05 42.2051 152.028 42.5206C152.027 42.5414 152.027 42.5622 152.028 42.583C152.079 42.9791 151.644 42.4798 151.644 42.4798C151.644 42.4798 151.718 41.6659 151.906 41.517Z" fill="#94CC79"/>
<path d="M150.156 43.9946L150.542 44.0979C150.39 44.3743 150.3 44.6809 150.28 44.9958C150.279 45.0166 150.279 45.0374 150.28 45.0582C150.331 45.4543 149.896 44.9549 149.896 44.9549C149.896 44.9549 149.968 44.1411 150.156 43.9946Z" fill="#94CC79"/>
<path d="M151.351 44.8133L151.735 44.9141C151.584 45.1919 151.495 45.499 151.473 45.8144C151.472 45.8352 151.472 45.8561 151.473 45.8768C151.526 46.273 151.089 45.7736 151.089 45.7736C151.089 45.7736 151.169 44.9597 151.351 44.8133Z" fill="#94CC79"/>
<path d="M152.888 46.8804L153.274 46.9812C153.122 47.2585 153.033 47.5659 153.013 47.8815C153.011 47.9023 153.011 47.9231 153.013 47.9439C153.063 48.3401 152.628 47.8407 152.628 47.8407C152.628 47.8407 152.703 47.0268 152.888 46.8804Z" fill="#94CC79"/>
<path d="M153.846 50.2823L154.23 50.3856C154.079 50.6626 153.99 50.9689 153.968 51.2835C153.967 51.3043 153.967 51.3251 153.968 51.3459C154.021 51.742 153.584 51.2451 153.584 51.2451C153.584 51.2451 153.658 50.4288 153.846 50.2823Z" fill="#94CC79"/>
<path d="M151.762 47.9031L152.146 48.0064C151.994 48.287 151.906 48.5977 151.889 48.9163C151.888 48.9371 151.888 48.9579 151.889 48.9787C151.939 49.3748 151.505 48.8779 151.505 48.8779C151.505 48.8779 151.577 48.0496 151.762 47.9031Z" fill="#94CC79"/>
<path d="M152.693 38.4824C152.693 38.4824 152.144 37.2364 151.493 38.1655C151.548 38.9199 151.796 39.6474 152.213 40.2782C152.213 40.2782 154.203 45.692 154.038 46.5203C154.038 46.5203 154.823 51.7492 154.628 52.0421C154.628 52.0421 154.844 52.4119 154.998 51.0218C155.152 49.6317 154.477 45.548 154.477 45.548L153.49 41.3034L152.83 39.8629L152.693 38.4824Z" fill="#E7C4C3"/>
<path opacity="0.2" d="M152.693 38.4824C152.693 38.4824 152.144 37.2364 151.493 38.1655C151.548 38.9199 151.796 39.6474 152.213 40.2782C152.213 40.2782 154.203 45.692 154.038 46.5203C154.038 46.5203 154.823 51.7492 154.628 52.0421C154.628 52.0421 154.844 52.4119 154.998 51.0218C155.152 49.6317 154.477 45.548 154.477 45.548L153.49 41.3034L152.83 39.8629L152.693 38.4824Z" fill="white"/>
<path d="M146.091 40.5471C146.091 40.5471 147.078 43.3897 147.98 42.6334L147.26 38.9194L146.091 40.5471Z" fill="#FBBEBE"/>
<path d="M78.6046 52.2222C78.6046 52.2222 87.3075 66.8839 89.341 68.8429C89.341 68.8429 98.0367 77.8699 93.6168 77.2457C93.2927 77.2001 86.9282 71.8199 86.556 70.9364C86.1839 70.0529 74.1511 54.4213 74.1511 54.4213L75.8677 52.8416L78.6046 52.2222Z" fill="#A0616A"/>
<path opacity="0.1" d="M78.6046 52.2222C78.6046 52.2222 87.3075 66.8839 89.341 68.8429C89.341 68.8429 98.0367 77.8699 93.6168 77.2457C93.2927 77.2001 86.9282 71.8199 86.556 70.9364C86.1839 70.0529 74.1511 54.4213 74.1511 54.4213L75.8677 52.8416L78.6046 52.2222Z" fill="black"/>
<path d="M86.5632 100.106C86.5632 100.106 83.7783 103.587 84.9403 104.98C86.1023 106.372 91.8906 109.035 93.7584 108.924C95.7319 108.809 102.346 109.164 102.579 106.139C102.579 106.139 103.042 104.747 97.0091 104.514C90.9759 104.281 92.8293 98.015 92.8293 98.015L86.5632 100.106Z" fill="#2F2E41"/>
<path d="M53.3745 70.6291C53.3745 70.6291 50.5896 80.1435 58.9444 81.7688L67.9954 81.3055C67.9954 81.3055 80.7605 78.751 84.244 80.6092C84.244 80.6092 85.6365 80.8493 85.1707 82.6979C84.705 84.5465 85.867 97.0883 85.867 97.0883V101.266C85.867 101.266 93.7584 101.266 94.6875 100.337C94.6875 100.337 93.9913 96.6226 94.6875 93.6144C95.3837 90.6062 93.5279 81.0798 93.5279 81.0798L93.3431 75.3635C93.3289 74.6551 93.1264 73.9633 92.7564 73.359C92.3864 72.7548 91.8621 72.2601 91.2375 71.9255C90.7986 71.6931 90.3105 71.5689 89.8139 71.563C89.8139 71.563 74.031 69.011 68.4612 69.4743C62.8913 69.9377 53.3745 70.6291 53.3745 70.6291Z" fill="#605D82"/>
<path d="M68.9246 40.223C68.9246 40.223 73.102 45.0966 73.5653 46.7219C74.0287 48.3473 79.1448 52.5175 79.1448 52.5175C79.1448 52.5175 75.4307 55.3024 76.127 56.6948C76.8232 58.0873 71.2534 52.0541 71.2534 52.0541L64.74 42.5445L68.9246 40.223Z" fill="#C51333"/>
<path opacity="0.1" d="M68.9246 40.223C68.9246 40.223 73.102 45.0966 73.5653 46.7219C74.0287 48.3473 79.1448 52.5175 79.1448 52.5175C79.1448 52.5175 75.4307 55.3024 76.127 56.6948C76.8232 58.0873 71.2534 52.0541 71.2534 52.0541L64.74 42.5445L68.9246 40.223Z" fill="black"/>
<path d="M71.7024 34.6531C71.7024 34.6531 69.6137 41.3754 69.6137 43.937C69.6137 46.4987 60.7931 43.2408 61.026 41.8483C61.2589 40.4558 66.1325 35.3494 66.3654 33.2607C66.5983 31.172 71.7024 34.6531 71.7024 34.6531Z" fill="#A0616A"/>
<path opacity="0.1" d="M64.7401 39.2939C64.7401 39.2939 56.6158 37.2052 55.4562 49.0435C54.2966 60.8819 56.3829 62.2719 52.9017 69.4671C49.4206 76.6623 76.576 70.3962 76.576 70.3962C76.576 70.3962 75.1835 68.7709 70.7733 69.4671L68.6846 63.201C68.6846 63.201 67.9883 60.4161 71.9353 60.4161C75.8822 60.4161 74.024 52.2918 74.024 52.2918C74.024 52.2918 71.9353 45.3295 70.7733 44.6333C69.6113 43.937 67.5322 39.7596 64.7401 39.2939Z" fill="black"/>
<path d="M64.7401 38.8329C64.7401 38.8329 56.6158 36.7442 55.4562 48.5802C54.2966 60.4161 56.3829 61.811 52.9017 69.0062C49.4206 76.2014 76.576 69.9353 76.576 69.9353C76.576 69.9353 75.1835 68.3099 70.7733 69.0062L68.6846 62.7401C68.6846 62.7401 67.9956 59.96 71.9425 59.96C75.8894 59.96 74.0312 51.8357 74.0312 51.8357C74.0312 51.8357 71.9425 44.8734 70.7805 44.1771C69.6185 43.4809 67.5322 39.2939 64.7401 38.8329Z" fill="#C51333"/>
<path d="M69.6207 38.8305C73.8504 38.8305 77.2793 35.4017 77.2793 31.172C77.2793 26.9423 73.8504 23.5134 69.6207 23.5134C65.391 23.5134 61.9622 26.9423 61.9622 31.172C61.9622 35.4017 65.391 38.8305 69.6207 38.8305Z" fill="#A0616A"/>
<path d="M68.1418 70.3866L87.3891 81.8913L105.297 65.2057L83.9487 57.7704L68.586 68.2283L68.1418 70.3866Z" fill="#DADAE5"/>
<path d="M90.8557 38.1823L84.8657 55.9962L104.725 61.7077L113.202 37.6181L90.8557 38.1823Z" fill="#DADAE5"/>
<path opacity="0.03" d="M89.2568 36.8667L90.8822 38.3528L113.229 37.7886L113.743 36.3289L89.2568 36.8667Z" fill="black"/>
<path opacity="0.03" d="M83.3582 54.9711L89.2569 36.8667L90.8823 38.3528L85.0435 55.7202L83.3582 54.9711Z" fill="black"/>
<path d="M89.2305 36.6962L90.8558 38.1823L113.202 37.6181L113.716 36.1584L89.2305 36.6962Z" fill="#EFF0F4"/>
<path d="M83.3318 54.8031L89.2306 36.6962L90.8559 38.1823L85.0171 55.5497L83.3318 54.8031Z" fill="#EFF0F4"/>
<path opacity="0.03" d="M89.2305 36.6962L91.7153 39.0202L114.064 38.456L113.716 36.1584L89.2305 36.6962Z" fill="black"/>
<path opacity="0.03" d="M83.3318 54.8031L89.2306 36.6962L91.7154 39.0202L85.8766 56.3876L83.3318 54.8031Z" fill="black"/>
<path opacity="0.03" d="M83.3701 55.0575L83.9127 58.5026L105.393 65.9595L104.766 61.9622L83.3701 55.0575Z" fill="black"/>
<path opacity="0.03" d="M67.4912 66.3797L83.3701 55.0575L84.0639 58.5002L68.4659 70.1009L67.4912 66.3797Z" fill="black"/>
<path d="M83.3318 54.803L83.7975 57.7728L105.277 65.2297L104.725 61.7077L83.3318 54.803Z" fill="#EFF0F4"/>
<path d="M67.4504 66.1228L83.3317 54.803L83.9487 57.7704L68.3507 69.3711L67.4504 66.1228Z" fill="#EFF0F4"/>
<path opacity="0.03" d="M83.3318 54.803L83.7975 57.7728L105.277 65.2297L104.725 61.7077L83.3318 54.803Z" fill="black"/>
<path opacity="0.03" d="M67.4504 66.1228L83.3317 54.803L83.9487 57.7704L68.3507 69.3711L67.4504 66.1228Z" fill="black"/>
<path d="M67.4504 66.1228L68.1683 70.4034L87.3627 81.872L86.8897 77.4666L67.4504 66.1228Z" fill="#CCCAD6"/>
<path d="M76.1965 65.4458C76.1965 65.4458 75.8628 66.082 76.3718 66.3749C76.6119 66.5141 78.3476 66.855 80.0906 67.1816C80.9453 67.34 81.8024 67.4937 82.4914 67.6137C83.3317 67.7626 83.9127 67.8538 83.9127 67.8538H84.3544L87.0241 67.9042L89.5354 67.9522L90.5989 67.7337L89.9867 63.5612L86.8081 60.068L86.143 60.6298L86.0302 60.7258L84.2824 61.5757L79.3512 63.9765L77.1328 65.0569L76.8736 65.1841L76.1965 65.4458Z" fill="#FFE09C"/>
<path d="M92.3947 67.46C92.3947 67.46 91.7969 62.8985 90.0731 61.2996C90.0731 61.2996 88.6567 59.8591 87.7852 59.4654C87.7852 59.4654 87.0433 58.9396 86.3135 60.5241C86.3135 60.5241 89.1152 62.2383 89.7202 64.9056L90.3228 67.5729L92.3947 67.46Z" fill="#E7C4C3"/>
<path d="M89.0253 65.8319C89.3822 65.2732 89.1371 64.4789 88.4778 64.0578C87.8186 63.6366 86.9948 63.7482 86.6379 64.3069C86.281 64.8656 86.5261 65.6599 87.1854 66.081C87.8447 66.5021 88.6684 66.3906 89.0253 65.8319Z" fill="#FF7F8E"/>
<path d="M84.6459 64.8412C85.0028 64.2825 84.7577 63.4882 84.0984 63.0671C83.4392 62.6459 82.6154 62.7574 82.2585 63.3161C81.9016 63.8748 82.1467 64.6692 82.806 65.0903C83.4653 65.5114 84.289 65.3999 84.6459 64.8412Z" fill="#FF7F8E"/>
<path d="M84.2825 61.5781C84.3011 61.8142 84.3762 62.0424 84.5016 62.2434C84.627 62.4444 84.7988 62.6123 85.0027 62.7329C85.6605 63.153 86.484 63.0426 86.8393 62.4928C87.1946 61.943 86.9522 61.1412 86.2919 60.721C86.2469 60.6923 86.2004 60.6658 86.1527 60.6418L86.0399 60.7378L84.2825 61.5781Z" fill="#FF7F8E"/>
<path d="M84.4746 66.9775C84.3929 67.1091 84.3397 67.2564 84.3186 67.4098C84.2975 67.5633 84.309 67.7194 84.3522 67.8682L87.0218 67.9186C87.0116 67.6743 86.9403 67.4365 86.8144 67.2268C86.6886 67.0171 86.5123 66.8423 86.3016 66.7182C85.6534 66.3077 84.8299 66.4205 84.4746 66.9775Z" fill="#FF7F8E"/>
<path d="M80.1243 66.058C80.0228 66.2267 79.9664 66.4186 79.9605 66.6154C79.9546 66.8122 79.9994 67.0071 80.0907 67.1816C80.9453 67.34 81.8024 67.4937 82.4915 67.6137L82.5131 67.5825C82.8684 67.0255 82.6235 66.2309 81.9657 65.8107C81.3079 65.3906 80.482 65.501 80.1243 66.058Z" fill="#FF7F8E"/>
<path d="M77.1328 65.0617C77.2356 65.1763 77.3536 65.2764 77.4833 65.3594C78.1411 65.7795 78.9646 65.6691 79.3199 65.1193C79.4222 64.9499 79.4788 64.757 79.4842 64.5592C79.4897 64.3615 79.4438 64.1657 79.3511 63.9909L77.1328 65.0617Z" fill="#FF7F8E"/>
<path d="M88.6134 66.7374L88.3733 67.1192C88.1246 66.8595 87.8223 66.6571 87.4874 66.5262L87.4178 66.5094C86.9688 66.4277 87.6579 66.1276 87.6579 66.1276C87.6579 66.1276 88.5198 66.4853 88.6134 66.7374Z" fill="#94CC79"/>
<path d="M86.5272 63.9813L86.2871 64.3654C86.0387 64.1047 85.7364 63.9015 85.4012 63.77L85.3316 63.7532C84.885 63.674 85.5717 63.3715 85.5717 63.3715C85.5717 63.3715 86.4336 63.7292 86.5272 63.9813Z" fill="#94CC79"/>
<path d="M85.2259 65.0017L84.9859 65.3834C84.7371 65.1237 84.4348 64.9214 84.1 64.7904L84.0303 64.7736C83.5814 64.6919 84.2704 64.3918 84.2704 64.3918C84.2704 64.3918 85.1299 64.7448 85.2259 65.0017Z" fill="#94CC79"/>
<path d="M82.4484 65.962L82.2083 66.3461C81.9599 66.0855 81.6575 65.8822 81.3224 65.7507L81.2528 65.7339C80.8038 65.6547 81.4928 65.3522 81.4928 65.3522C81.4928 65.3522 82.3523 65.7003 82.4484 65.962Z" fill="#94CC79"/>
<path d="M78.4246 65.8179L78.1845 66.2021C77.9351 65.9415 77.632 65.7384 77.2962 65.6067L77.2266 65.5899C76.7801 65.5106 77.4667 65.2081 77.4667 65.2081C77.4667 65.2081 78.3262 65.5635 78.4246 65.8179Z" fill="#94CC79"/>
<path d="M81.7257 64.3774L81.4856 64.7591C81.2372 64.4985 80.9349 64.2953 80.5997 64.1637L80.5301 64.1469C80.0811 64.0677 80.7702 63.7652 80.7702 63.7652C80.7702 63.7652 81.6297 64.1229 81.7257 64.3774Z" fill="#94CC79"/>
<path d="M91.6288 68.6437C91.6288 68.6437 93.1726 68.4756 92.3851 67.4601C91.5488 67.2559 90.6739 67.2708 89.845 67.5033C89.845 67.5033 83.2741 67.7962 82.4218 67.3256C82.4218 67.3256 76.4678 66.3653 76.2277 66.0628C76.2277 66.0628 75.7475 66.1684 77.2072 66.8167C78.6669 67.4649 83.3365 68.1419 83.3365 68.1419L88.2893 68.5356L90.0707 68.3147L91.6288 68.6437Z" fill="#E7C4C3"/>
<path opacity="0.2" d="M91.6288 68.6437C91.6288 68.6437 93.1726 68.4756 92.3851 67.4601C91.5488 67.2559 90.6739 67.2708 89.845 67.5033C89.845 67.5033 83.2741 67.7962 82.4218 67.3256C82.4218 67.3256 76.4678 66.3653 76.2277 66.0628C76.2277 66.0628 75.7475 66.1684 77.2072 66.8167C78.6669 67.4649 83.3365 68.1419 83.3365 68.1419L88.2893 68.5356L90.0707 68.3147L91.6288 68.6437Z" fill="white"/>
<path d="M86.9473 66.2884C86.8752 66.513 86.8578 66.7515 86.8967 66.9842C86.9355 67.2168 87.0294 67.4367 87.1706 67.6257C87.6219 68.2619 88.4262 68.4684 88.9688 68.0866C89.5113 67.7049 89.581 66.8862 89.1272 66.238C89.096 66.1948 89.0624 66.1516 89.0288 66.1108L88.8847 66.1588L86.9473 66.2884Z" fill="#FF7F8E"/>
<path d="M86.8896 77.4666L104.725 61.7078L105.273 65.1865L87.3626 81.8721L86.8896 77.4666Z" fill="#CCCAD6"/>
<path d="M107.04 62.6056L104.725 61.7077L113.716 36.1584L115.431 37.3684L107.04 62.6056Z" fill="#CCCAD6"/>
<g opacity="0.1">
<path d="M92.5653 99.8444C92.5833 99.2264 92.6727 98.6125 92.8318 98.015L92.7141 98.0558C92.5989 98.6447 92.549 99.2446 92.5653 99.8444Z" fill="white"/>
<path d="M93.7585 108.456C91.8907 108.567 86.1 105.902 84.9404 104.509C84.7873 104.322 84.6937 104.093 84.6715 103.851C84.6372 104.047 84.6434 104.248 84.6896 104.441C84.7359 104.634 84.8212 104.816 84.9404 104.975C86.1 106.367 91.8907 109.03 93.7585 108.919C95.732 108.804 102.346 109.16 102.579 106.135C102.595 106.053 102.584 105.969 102.548 105.894C102.015 108.675 95.6815 108.348 93.7585 108.456Z" fill="white"/>
</g>
<path d="M100.541 52.1286C100.541 52.1286 100.954 51.6484 100.579 51.3027C100.399 51.1346 98.9873 50.4912 97.566 49.8622C96.8674 49.5549 96.164 49.2524 95.6046 49.0123L94.4402 48.5154L94.0633 48.4193L91.7945 47.8407L89.6602 47.2958L88.6999 47.2693L88.3782 50.9642L90.3924 54.5846L91.0695 54.2389L91.1871 54.1788L92.8509 53.8043L97.5516 52.7576L99.6619 52.2774L99.902 52.2222L100.541 52.1286Z" fill="#FFE09C"/>
<path d="M87.1153 47.1565C87.1153 47.1565 86.7096 51.1706 87.8596 52.8824C87.8596 52.8824 88.7815 54.3901 89.4441 54.9087C89.4441 54.9087 89.9723 55.5041 90.9158 54.2989C90.9158 54.2989 88.8655 52.2726 88.8871 49.8742L88.9063 47.4734L87.1153 47.1565Z" fill="#E7C4C3"/>
<path d="M91.3965 51.0236C91.8129 50.6188 91.7631 49.8922 91.2853 49.4007C90.8075 48.9091 90.0825 48.8388 89.6661 49.2437C89.2497 49.6485 89.2995 50.3751 89.7773 50.8666C90.2551 51.3581 90.98 51.4284 91.3965 51.0236Z" fill="#FF7F8E"/>
<path d="M94.9377 52.7467C95.3541 52.3418 95.3044 51.6152 94.8265 51.1237C94.3487 50.6322 93.6238 50.5619 93.2074 50.9667C92.7909 51.3715 92.8407 52.0981 93.3185 52.5896C93.7964 53.0812 94.5213 53.1515 94.9377 52.7467Z" fill="#FF7F8E"/>
<path d="M92.8606 53.8067C92.8925 53.6024 92.8751 53.3934 92.81 53.1972C92.7449 53.0009 92.6338 52.823 92.4861 52.6783C92.0059 52.1982 91.2857 52.1165 90.8655 52.5223C90.4454 52.928 90.5006 53.6531 90.9783 54.1452C91.0102 54.1791 91.0438 54.2111 91.0792 54.2413L91.1968 54.1812L92.8606 53.8067Z" fill="#FF7F8E"/>
<path d="M93.7897 49.1563C93.8861 49.0604 93.9609 48.945 94.0093 48.818C94.0578 48.6909 94.0786 48.555 94.0706 48.4193L91.8019 47.8407C91.7627 48.0493 91.7758 48.2643 91.8399 48.4666C91.904 48.669 92.0171 48.8523 92.1692 49.0003C92.6397 49.4949 93.3648 49.5645 93.7897 49.1563Z" fill="#FF7F8E"/>
<path d="M97.3091 50.8177C97.4307 50.6931 97.5181 50.5393 97.5631 50.3711C97.6081 50.203 97.6091 50.0261 97.566 49.8574C96.8674 49.5501 96.164 49.2476 95.6046 49.0075L95.5782 49.0291C95.1628 49.4348 95.2132 50.1623 95.691 50.6545C96.1688 51.1466 96.8938 51.2234 97.3091 50.8177Z" fill="#FF7F8E"/>
<path d="M99.662 52.2774C99.5984 52.1581 99.5175 52.0489 99.4219 51.9533C98.9417 51.4611 98.2215 51.3915 97.8038 51.7973C97.6816 51.9215 97.594 52.0753 97.5494 52.2437C97.5047 52.4121 97.5047 52.5892 97.5493 52.7576L99.662 52.2774Z" fill="#FF7F8E"/>
<path d="M90.1885 48.5321L90.4742 48.256C90.6352 48.5275 90.853 48.7609 91.1128 48.9403L91.168 48.9691C91.5353 49.1275 90.8823 49.2452 90.8823 49.2452C90.8823 49.2452 90.2293 48.7674 90.1885 48.5321Z" fill="#94CC79"/>
<path d="M91.4272 51.3171L91.7105 51.0386C91.8712 51.311 92.0891 51.5452 92.3492 51.7252L92.4044 51.7516C92.7717 51.9125 92.1187 52.0301 92.1187 52.0301C92.1187 52.0301 91.4561 51.5379 91.4272 51.3171Z" fill="#94CC79"/>
<path d="M92.7405 50.7001L93.0262 50.4216C93.1868 50.694 93.4047 50.9282 93.6648 51.1082L93.72 51.1346C94.0873 51.2955 93.4343 51.4131 93.4343 51.4131C93.4343 51.4131 92.7717 50.9353 92.7405 50.7001Z" fill="#94CC79"/>
<path d="M95.3044 50.4408L95.5901 50.1623C95.7505 50.4342 95.9675 50.6684 96.2263 50.8489L96.284 50.8777C96.6489 51.0362 95.9983 51.1538 95.9983 51.1538C95.9983 51.1538 95.3357 50.6761 95.3044 50.4408Z" fill="#94CC79"/>
<path d="M98.7161 51.3675L99.0018 51.089C99.1611 51.3616 99.3783 51.596 99.638 51.7756L99.6956 51.802C100.061 51.9629 99.4099 52.0805 99.4099 52.0805C99.4099 52.0805 98.7473 51.6004 98.7161 51.3675Z" fill="#94CC79"/>
<path d="M95.6047 51.9317L95.8904 51.6556C96.0514 51.9271 96.2693 52.1605 96.529 52.3398C96.5461 52.3518 96.5647 52.3615 96.5843 52.3686C96.9516 52.5271 96.2986 52.6471 96.2986 52.6471C96.2986 52.6471 95.6359 52.1669 95.6047 51.9317Z" fill="#94CC79"/>
<path d="M87.9989 46.297C87.9989 46.297 86.6472 46.1313 87.1154 47.1565C87.7882 47.5001 88.538 47.6654 89.2929 47.6366C89.2929 47.6366 94.9612 48.7074 95.595 49.2788C95.595 49.2788 100.485 51.2907 100.637 51.6028C100.637 51.6028 101.066 51.6028 99.9525 50.7601C98.8385 49.9174 94.99 48.3929 94.99 48.3929L90.8414 47.0604L89.2761 46.89L87.9989 46.297Z" fill="#E7C4C3"/>
<path opacity="0.2" d="M87.9989 46.297C87.9989 46.297 86.6472 46.1313 87.1154 47.1565C87.7882 47.5001 88.538 47.6654 89.2929 47.6366C89.2929 47.6366 94.9612 48.7074 95.595 49.2788C95.595 49.2788 100.485 51.2907 100.637 51.6028C100.637 51.6028 101.066 51.6028 99.9525 50.7601C98.8385 49.9174 94.99 48.3929 94.99 48.3929L90.8414 47.0604L89.2761 46.89L87.9989 46.297Z" fill="white"/>
<path d="M81.087 51.8885C81.7765 51.5266 82.4005 51.0519 82.9333 50.484C83.1733 50.2007 83.375 49.8814 83.6223 49.6029C84.2456 48.9369 85.0557 48.475 85.9463 48.2777C86.8297 48.0836 87.7332 47.9958 88.6376 48.016C89.2428 47.9774 89.8499 48.0507 90.4286 48.232C90.718 48.3267 90.9787 48.4934 91.1861 48.7163C91.3936 48.9393 91.541 49.2113 91.6145 49.5069C91.7466 50.2271 91.276 50.9257 90.7118 51.3891C90.1865 51.8178 89.5683 52.1178 88.9064 52.2654C88.367 52.3587 87.8228 52.422 87.2763 52.455C84.064 52.7912 81.1975 54.5389 78.3933 56.1307C75.9205 57.5303 74.5185 57.4655 71.952 58.6803C71.8512 57.9121 70.6892 58.5075 70.706 57.732C70.7204 57.1534 70.7492 56.2699 71.2966 55.929C71.9328 55.5329 72.9771 55.4488 73.6974 55.2088C75.3521 54.6662 76.9683 54.0125 78.535 53.2521C79.4009 52.828 80.2516 52.3734 81.087 51.8885Z" fill="#A0616A"/>
<path opacity="0.1" d="M59.8735 49.7397L72.1823 60.8794C72.1823 60.8794 74.5039 56.2387 75.2002 56.2387C75.8964 56.2387 66.8454 42.5541 66.8454 42.5541C66.8454 42.5541 64.5238 39.7692 63.1313 41.1617C61.7389 42.5541 57.5519 41.6154 59.8735 49.7397Z" fill="black"/>
<path d="M59.6407 49.2764L71.9424 60.4161C71.9424 60.4161 74.2639 55.773 74.9602 55.773C75.6564 55.773 66.603 42.0884 66.603 42.0884C66.603 42.0884 64.2814 39.3011 62.8889 40.6935C61.4965 42.086 57.3191 41.1521 59.6407 49.2764Z" fill="#C51333"/>
<path d="M79.8939 29.6403C80.1625 29.3415 80.3806 29.0009 80.5397 28.6319C81.6008 26.2311 79.9179 23.2157 77.0441 22.3899C75.6036 21.9697 73.9903 22.0538 72.5522 21.6072C71.395 21.2495 70.4203 20.5725 69.3591 20.0443C67.365 19.0618 65.1587 18.5883 62.937 18.6662C60.7643 18.7431 58.4019 19.5065 57.5112 21.1847C56.21 23.6287 58.6036 26.7065 57.1535 29.0857C56.0875 30.8335 53.5019 31.3496 51.358 32.1083C49.1384 32.8759 47.1176 34.1283 45.4424 35.7743C43.7618 37.4549 42.5614 39.7596 43.4065 41.8435C43.8987 43.0655 45.0102 44.0211 45.8937 45.075C47.3677 46.8044 48.23 48.9718 48.3467 51.2411C48.4635 53.5104 47.8283 55.7549 46.5396 57.6264C46.1266 58.2194 45.6441 58.798 45.4736 59.4702C45.0655 61.0739 46.7124 62.6873 48.6162 62.9994C50.5201 63.3115 52.4959 62.6008 53.9772 61.5517C55.3448 60.6089 56.4455 59.3287 57.1727 57.8353C58.9325 54.1044 57.6961 49.9126 57.5208 45.8961C57.4992 45.4279 57.5208 44.919 57.8497 44.5516C58.3587 44.0019 59.319 44.0163 60.1401 43.9442C62.2648 43.757 64.2214 42.5662 65.1217 40.924C66.8431 37.7646 64.8384 33.3495 67.8466 30.9727C71.6327 27.9813 77.0825 32.7109 79.8939 29.6403Z" fill="#3F3D56"/>
<path opacity="0.1" d="M77.044 22.3802H77.02C78.1436 23.6815 78.5661 25.4389 77.8987 26.9562C77.7397 27.3251 77.5215 27.6657 77.2529 27.9645C74.4416 31.0351 68.9918 26.3056 65.2057 29.2969C62.1975 31.6737 64.2022 36.0888 62.4808 39.2483C61.5877 40.8904 59.6238 42.0812 57.4991 42.2685C56.6781 42.3405 55.7177 42.3261 55.2088 42.8759C54.8703 43.2432 54.8583 43.7522 54.8799 44.2203C55.0551 48.2369 56.2915 52.4286 54.5318 56.1595C53.8046 57.6529 52.7039 58.9331 51.3363 59.8759C49.855 60.9203 47.8815 61.6405 45.9753 61.3284L45.8433 61.2996C46.1688 61.7544 46.5816 62.1398 47.0577 62.4333C47.5338 62.7268 48.0636 62.9225 48.6162 63.009C50.5224 63.3187 52.4839 62.5984 53.9772 61.5517C55.3447 60.6089 56.4455 59.3287 57.1726 57.8352C58.9324 54.1044 57.696 49.9126 57.5207 45.8961C57.4991 45.4279 57.5207 44.9189 57.8497 44.5516C58.3586 44.0018 59.3189 44.0162 60.14 43.9442C62.2647 43.757 64.2214 42.5662 65.1217 40.924C66.843 37.7646 64.8384 33.3495 67.8466 30.9727C71.6326 27.9813 77.0825 32.7109 79.8938 29.6403C80.1624 29.3415 80.3806 29.0009 80.5396 28.6319C81.6008 26.2239 79.9178 23.2277 77.044 22.3802Z" fill="black"/>
</g>
<defs>
<clipPath id="clip0_60_1588">
<rect width="250" height="138.649" fill="white"/>
</clipPath>
</defs>
</svg>
