<svg width="280" height="154" viewBox="0 0 280 154" fill="none" xmlns="http://www.w3.org/2000/svg">
<g clip-path="url(#clip0_60_1742)">
<path d="M144.08 153.212C139.653 153.86 135.173 154.075 130.705 153.855C119.929 153.313 109.332 150.197 100.275 144.338C96.2601 141.74 92.4297 138.548 90.3512 134.26C87.5303 128.438 88.5168 121.066 92.5452 115.995C94.0146 114.165 95.822 112.632 97.8703 111.477C98.1738 111.307 98.4839 111.143 98.7974 110.985C102.21 109.279 106.044 108.581 109.843 108.974C116.303 109.676 122.265 113.6 125.709 119.082C128.778 123.97 129.847 129.737 130.477 135.517C130.596 136.606 130.698 137.698 130.797 138.784C130.248 141.93 129.385 145.014 128.22 147.989C128.161 148.134 128.112 148.283 128.075 148.435C128.735 149.859 129.363 151.296 129.959 152.746C130.519 153.048 131.146 153.206 131.783 153.205H144.053L144.08 153.212Z" fill="#F2F2F2"/>
<path d="M129.705 153.491C129.623 153.527 129.536 153.546 129.447 153.548C129.358 153.55 129.269 153.535 129.186 153.502C129.103 153.47 129.028 153.422 128.964 153.36C128.9 153.298 128.849 153.224 128.814 153.143C128.761 153.018 128.712 152.894 128.659 152.769C128.184 151.621 127.686 150.484 127.164 149.357C120.491 134.823 110.536 122.014 98.0748 111.927C98.0034 111.877 97.9467 111.809 97.9108 111.73C97.8748 111.651 97.8608 111.564 97.8703 111.477C97.8884 111.379 97.9288 111.285 97.9883 111.204C98.0479 111.123 98.1251 111.056 98.2143 111.009C98.3034 110.961 98.4022 110.935 98.5032 110.931C98.6042 110.927 98.7048 110.945 98.7974 110.985C98.8471 111.008 98.8937 111.036 98.936 111.071C104.268 115.388 109.159 120.218 113.538 125.488C117.919 130.754 121.776 136.43 125.056 142.435C125.95 144.076 126.799 145.739 127.603 147.425C127.762 147.76 127.92 148.098 128.075 148.435C128.735 149.859 129.363 151.296 129.959 152.746C129.969 152.769 129.979 152.795 129.989 152.818C130.019 152.88 130.036 152.948 130.038 153.017C130.04 153.086 130.027 153.155 130 153.218C129.973 153.282 129.933 153.339 129.882 153.386C129.831 153.433 129.771 153.469 129.705 153.491Z" fill="white"/>
<path d="M85.9467 110.224C93.053 110.224 98.8138 104.496 98.8138 97.4304C98.8138 90.3646 93.053 84.6365 85.9467 84.6365C78.8404 84.6365 73.0796 90.3646 73.0796 97.4304C73.0796 104.496 78.8404 110.224 85.9467 110.224Z" fill="#C51333"/>
<path d="M84.6712 102.311C84.3818 102.312 84.0999 102.218 83.8683 102.046L83.8539 102.035L80.8301 99.7331C80.6899 99.6264 80.5723 99.4934 80.4839 99.3415C80.3955 99.1897 80.3381 99.022 80.3149 98.848C80.2917 98.6741 80.3032 98.4973 80.3487 98.3277C80.3942 98.1582 80.4729 97.9993 80.5803 97.86C80.6876 97.7207 80.8215 97.6038 80.9743 97.516C81.127 97.4281 81.2957 97.3711 81.4707 97.3481C81.6456 97.3251 81.8234 97.3366 81.9939 97.382C82.1644 97.4274 82.3242 97.5057 82.4642 97.6125L84.4229 99.1058L89.0514 93.1038C89.1587 92.9646 89.2926 92.8478 89.4454 92.76C89.5981 92.6722 89.7668 92.6153 89.9417 92.5923C90.1166 92.5693 90.2943 92.5809 90.4647 92.6262C90.6352 92.6716 90.7949 92.7498 90.9349 92.8566L90.9062 92.8954L90.9357 92.8571C91.2181 93.073 91.4029 93.3913 91.4495 93.7424C91.4961 94.0935 91.4007 94.4487 91.1843 94.73L85.74 101.79C85.6141 101.952 85.4522 102.084 85.2669 102.174C85.0815 102.265 84.8777 102.312 84.6712 102.311Z" fill="white"/>
<path d="M279.607 154H0.392922C0.288932 154 0.189307 153.958 0.115881 153.885C0.0424556 153.812 0.0012207 153.713 0.0012207 153.609C0.0012207 153.506 0.0424556 153.407 0.115881 153.334C0.189307 153.26 0.288932 153.219 0.392922 153.219H279.607C279.711 153.219 279.811 153.26 279.884 153.334C279.958 153.407 279.999 153.506 279.999 153.609C279.999 153.713 279.958 153.812 279.884 153.885C279.811 153.958 279.711 154 279.607 154Z" fill="#3F3D56"/>
<path d="M54.6179 44.5965C59.8911 44.5965 64.1659 40.346 64.1659 35.1028C64.1659 29.8595 59.8911 25.6091 54.6179 25.6091C49.3446 25.6091 45.0698 29.8595 45.0698 35.1028C45.0698 40.346 49.3446 44.5965 54.6179 44.5965Z" fill="#2F2E41"/>
<path d="M47.1652 29.984C48.7081 28.4499 49.0208 26.2734 47.8636 25.1228C46.7064 23.9722 44.5175 24.2831 42.9746 25.8173C41.4317 27.3514 41.119 29.5279 42.2762 30.6785C43.4334 31.8291 45.6223 31.5182 47.1652 29.984Z" fill="#2F2E41"/>
<path d="M64.5695 26.9691C65.2124 25.4727 64.1069 23.5687 62.1002 22.7165C60.0936 21.8642 57.9458 22.3863 57.3029 23.8827C56.6601 25.3792 57.7656 27.2831 59.7722 28.1354C61.7788 28.9877 63.9267 28.4655 64.5695 26.9691Z" fill="#2F2E41"/>
<path d="M81.2052 89.9139C81.4464 89.4579 81.5842 88.9549 81.6088 88.4403C81.6334 87.9257 81.5442 87.4119 81.3475 86.9353C81.1508 86.4587 80.8514 86.0307 80.4704 85.6815C80.0894 85.3324 79.636 85.0706 79.1422 84.9145L65.346 55.8956L59.0352 60.2958L74.5808 87.4368C74.3721 88.279 74.4813 89.1681 74.8879 89.9356C75.2944 90.703 75.9699 91.2956 76.7864 91.6009C77.603 91.9062 78.5038 91.9032 79.3182 91.5922C80.1326 91.2813 80.804 90.6841 81.2052 89.9139V89.9139Z" fill="#FFB8B8"/>
<path d="M68.5098 60.737L61.1826 63.9948C60.9741 64.0875 60.748 64.1344 60.5196 64.1324C60.2913 64.1303 60.066 64.0794 59.8593 63.983C59.6525 63.8866 59.4691 63.747 59.3214 63.5738C59.1738 63.4005 59.0654 63.1977 59.0038 62.9791L56.843 55.3181C56.3721 54.2548 56.3445 53.0493 56.7662 51.9658C57.1879 50.8823 58.0244 50.0093 59.0924 49.5382C60.1605 49.067 61.3728 49.0362 62.4637 49.4525C63.5545 49.8688 64.4348 50.6981 64.9116 51.7588L69.2011 58.4451C69.3239 58.6366 69.4037 58.8521 69.4351 59.077C69.4666 59.3019 69.4489 59.5309 69.3833 59.7484C69.3176 59.966 69.2057 60.1668 69.0549 60.3374C68.9042 60.508 68.7183 60.6443 68.5098 60.737Z" fill="#CCCCCC"/>
<path d="M34.6701 92.7908C35.1748 92.6743 35.6477 92.4491 36.0555 92.1312C36.4632 91.8133 36.7959 91.4103 37.03 90.9507C37.2642 90.4911 37.3942 89.9861 37.4108 89.4712C37.4274 88.9562 37.3303 88.4439 37.1263 87.9703L50.1921 58.6192L42.7178 56.7473L32.2248 86.1872C31.4474 86.5807 30.8422 87.2442 30.5238 88.0517C30.2055 88.8593 30.1961 89.755 30.4975 90.569C30.799 91.3829 31.3902 92.0587 32.1592 92.4682C32.9283 92.8777 33.8217 92.9925 34.6701 92.7908H34.6701Z" fill="#FFB8B8"/>
<path d="M31.1084 145.992L34.9091 147.368L42.0557 133.447L36.4459 131.416L31.1084 145.992Z" fill="#FFB8B8"/>
<path d="M40.9541 153.531L29.009 149.207L30.6893 144.618L38.0193 147.271C39.2433 147.715 40.2402 148.623 40.7906 149.797C41.3409 150.971 41.3998 152.314 40.9541 153.531Z" fill="#2F2E41"/>
<path d="M40.0985 137.981C39.8653 137.981 39.635 137.93 39.4242 137.83L35.0562 135.773C34.6981 135.606 34.4159 135.312 34.2652 134.948C34.1145 134.584 34.1061 134.178 34.2418 133.808L46.5691 99.8657C46.6712 99.5846 46.8513 99.338 47.0887 99.1546C47.3261 98.9712 47.6108 98.8586 47.91 98.8297C48.2092 98.8008 48.5105 98.8568 48.7789 98.9913C49.0473 99.1258 49.2719 99.3333 49.4265 99.5896L55.9466 110.395C56.0917 110.635 56.1697 110.91 56.1727 111.191C56.1757 111.471 56.1036 111.748 55.9637 111.992L41.4842 137.186C41.3439 137.428 41.1419 137.629 40.8986 137.769C40.6554 137.908 40.3794 137.981 40.0985 137.981Z" fill="#2F2E41"/>
<path d="M54.9207 45.4263C59.396 45.4263 63.024 41.819 63.024 37.3691C63.024 32.9192 59.396 29.3119 54.9207 29.3119C50.4454 29.3119 46.8174 32.9192 46.8174 37.3691C46.8174 41.819 50.4454 45.4263 54.9207 45.4263Z" fill="#FFB8B8"/>
<path d="M66.3845 74.0022L52.0367 70.0789L44.4057 54.9038C44.0391 54.1747 43.866 53.3646 43.9028 52.5504C43.9397 51.7361 44.1852 50.9448 44.6162 50.2514C45.0472 49.5581 45.6492 48.9858 46.3652 48.5889C47.0812 48.192 47.8873 47.9837 48.7071 47.9837H60.1223C61.3072 47.983 62.4505 48.4177 63.3325 49.2045C66.3947 51.932 72.8281 59.7955 66.4466 73.865L66.3845 74.0022Z" fill="#CCCCCC"/>
<path d="M48.4234 63.8685L41.154 60.4851C40.9471 60.3888 40.7636 60.2494 40.6159 60.0762C40.4681 59.9031 40.3597 59.7003 40.2978 59.4817C40.236 59.2631 40.2223 59.0338 40.2577 58.8095C40.293 58.5851 40.3765 58.371 40.5026 58.1817L44.9205 51.5476C45.4219 50.4983 46.3213 49.6895 47.4215 49.2985C48.5217 48.9075 49.733 48.9662 50.7897 49.4618C51.8465 49.9574 52.6625 50.8494 53.0588 51.9423C53.4551 53.0351 53.3995 54.2397 52.904 55.2918L50.6196 62.8903C50.5541 63.1079 50.4423 63.3088 50.2916 63.4795C50.141 63.6502 49.9552 63.7866 49.7467 63.8794C49.5383 63.9722 49.3122 64.0193 49.0838 64.0174C48.8555 64.0155 48.6302 63.9647 48.4234 63.8685Z" fill="#CCCCCC"/>
<path d="M57.2183 149.797H61.2628L63.1873 134.284L57.2173 134.284L57.2183 149.797Z" fill="#FFB8B8"/>
<path d="M69.064 153.531L56.3517 153.531L56.3515 148.648L64.1522 148.647C65.4548 148.647 66.7041 149.162 67.6253 150.077C68.5464 150.993 69.0639 152.235 69.064 153.531Z" fill="#2F2E41"/>
<path d="M58.7456 143.885C58.3819 143.886 58.0292 143.762 57.7468 143.534C57.4645 143.306 57.2698 142.988 57.1957 142.634C56.033 137.187 49.9946 109.287 45.2817 94.9163C40.4865 80.295 48.6529 73.6352 50.3387 72.4488C50.5182 72.3227 50.6609 72.1514 50.752 71.9525L51.9768 69.2737C52.1038 68.9971 52.308 68.7627 52.5653 68.5983C52.8225 68.4339 53.1218 68.3465 53.4275 68.3464H53.4374C62.6188 68.401 65.7054 71.2787 66.6062 72.5136C66.7391 72.6975 66.8302 72.9079 66.8731 73.1304C66.9161 73.3528 66.9098 73.5818 66.8549 73.8016L61.0457 97.6326C61.0096 97.7803 61.0015 97.9335 61.0216 98.0842L66.8013 141.354C66.8291 141.562 66.815 141.773 66.7597 141.976C66.7044 142.178 66.6092 142.368 66.4795 142.533C66.3498 142.699 66.1883 142.837 66.0044 142.94C65.8204 143.042 65.6177 143.108 65.4081 143.132L58.9321 143.875C58.8702 143.882 58.8079 143.885 58.7456 143.885Z" fill="#2F2E41"/>
<path d="M46.406 32.3012C48.2577 33.5702 50.4556 34.2455 52.7045 34.2366C51.9023 34.7897 50.989 35.1633 50.0276 35.3316C53.0177 35.9694 56.1081 35.9867 59.1052 35.3824C59.7714 35.2761 60.4142 35.0566 61.0055 34.7334C61.3001 34.5698 61.5568 34.3464 61.7589 34.0776C61.961 33.8089 62.1039 33.5009 62.1785 33.1736C62.3776 32.0423 61.4911 31.0145 60.5697 30.3219C59.1591 29.2775 57.5327 28.558 55.8081 28.2153C54.0835 27.8727 52.3038 27.9154 50.5979 28.3406C49.484 28.6269 48.3681 29.1106 47.6446 30.0001C46.921 30.8895 46.7067 32.2608 47.396 33.1767L46.406 32.3012Z" fill="#2F2E41"/>
<path d="M195.152 67.25C197.521 67.25 199.441 65.3406 199.441 62.9853C199.441 60.63 197.521 58.7207 195.152 58.7207C192.783 58.7207 190.863 60.63 190.863 62.9853C190.863 65.3406 192.783 67.25 195.152 67.25Z" fill="#C51333"/>
<path d="M194.727 64.6122C194.631 64.6124 194.537 64.5813 194.459 64.5238L194.455 64.5202L193.447 63.7529C193.4 63.7174 193.36 63.673 193.331 63.6224C193.301 63.5717 193.282 63.5158 193.274 63.4577C193.266 63.3997 193.27 63.3407 193.285 63.2841C193.301 63.2275 193.327 63.1744 193.363 63.1279C193.398 63.0815 193.443 63.0425 193.494 63.0132C193.545 62.9839 193.601 62.9649 193.66 62.9573C193.718 62.9497 193.778 62.9536 193.834 62.9688C193.891 62.984 193.945 63.0103 193.991 63.046L194.644 63.5438L196.187 61.5431C196.223 61.4967 196.267 61.4578 196.318 61.4285C196.369 61.3993 196.425 61.3803 196.484 61.3726C196.542 61.365 196.601 61.3688 196.658 61.3839C196.715 61.399 196.768 61.4251 196.815 61.4607L196.805 61.4736L196.815 61.4609C196.909 61.5328 196.971 61.639 196.986 61.756C197.002 61.873 196.97 61.9914 196.898 62.0852L195.083 64.4384C195.041 64.4926 194.987 64.5365 194.926 64.5667C194.864 64.5968 194.796 64.6124 194.727 64.6122Z" fill="white"/>
<path d="M195.152 79.7158C197.521 79.7158 199.441 77.8064 199.441 75.4512C199.441 73.0959 197.521 71.1865 195.152 71.1865C192.783 71.1865 190.863 73.0959 190.863 75.4512C190.863 77.8064 192.783 79.7158 195.152 79.7158Z" fill="#C51333"/>
<path d="M194.727 77.0781C194.631 77.0782 194.537 77.0472 194.459 76.9897L194.455 76.9861L193.447 76.2188C193.4 76.1832 193.36 76.1389 193.331 76.0883C193.301 76.0376 193.282 75.9817 193.274 75.9236C193.266 75.8656 193.27 75.8066 193.285 75.75C193.301 75.6934 193.327 75.6403 193.363 75.5938C193.398 75.5473 193.443 75.5083 193.494 75.479C193.545 75.4498 193.601 75.4308 193.66 75.4232C193.718 75.4155 193.778 75.4195 193.834 75.4347C193.891 75.4499 193.945 75.4761 193.991 75.5119L194.644 76.0096L196.187 74.009C196.223 73.9626 196.267 73.9236 196.318 73.8944C196.369 73.8651 196.425 73.8461 196.484 73.8385C196.542 73.8308 196.601 73.8347 196.658 73.8498C196.715 73.8649 196.768 73.891 196.815 73.9266L196.805 73.9395L196.815 73.9268C196.909 73.9987 196.971 74.1048 196.986 74.2219C197.002 74.3389 196.97 74.4573 196.898 74.551L195.083 76.9043C195.041 76.9585 194.987 77.0024 194.926 77.0325C194.864 77.0627 194.796 77.0783 194.727 77.0781Z" fill="white"/>
<path d="M197.462 94.1499C199.83 94.1499 201.751 92.2406 201.751 89.8853C201.751 87.53 199.83 85.6207 197.462 85.6207C195.093 85.6207 193.173 87.53 193.173 89.8853C193.173 92.2406 195.093 94.1499 197.462 94.1499Z" fill="#C51333"/>
<path d="M197.037 91.5122C196.94 91.5124 196.846 91.4814 196.769 91.4238L196.764 91.4202L195.756 90.6529C195.709 90.6174 195.67 90.5731 195.64 90.5224C195.611 90.4718 195.592 90.4158 195.584 90.3578C195.576 90.2997 195.58 90.2407 195.595 90.1841C195.61 90.1275 195.636 90.0745 195.672 90.028C195.708 89.9815 195.753 89.9425 195.804 89.9132C195.855 89.8839 195.911 89.8649 195.969 89.8573C196.028 89.8497 196.087 89.8536 196.144 89.8688C196.201 89.884 196.254 89.9103 196.301 89.946L196.954 90.4438L198.497 88.4431C198.532 88.3967 198.577 88.3578 198.628 88.3285C198.679 88.2993 198.735 88.2803 198.793 88.2726C198.852 88.265 198.911 88.2688 198.968 88.2839C199.025 88.299 199.078 88.3251 199.124 88.3607L199.115 88.3737L199.125 88.3609C199.219 88.4329 199.28 88.539 199.296 88.656C199.312 88.773 199.28 88.8914 199.208 88.9852L197.393 91.3384C197.351 91.3927 197.297 91.4365 197.235 91.4667C197.173 91.4968 197.105 91.5124 197.037 91.5122Z" fill="white"/>
<path d="M238.82 125.492C238.775 125.492 238.747 125.49 238.738 125.49L233.413 125.49V124.71H238.757C238.881 124.714 241.405 124.785 243.731 121.979C247.197 117.796 250.044 107.443 243.92 81.8702C235.686 47.484 242.554 17.1057 245.888 5.6409C246.053 5.07369 246.082 4.47626 245.974 3.89581C245.866 3.31537 245.624 2.76781 245.267 2.29641C244.91 1.825 244.447 1.44266 243.916 1.1796C243.384 0.916536 242.798 0.779964 242.205 0.780664H162.681C162.077 0.78147 161.481 0.924006 160.942 1.19671C160.403 1.46941 159.937 1.86459 159.58 2.35017C158.168 4.28238 156.229 7.99431 155.016 14.7061L154.243 14.5681C155.483 7.71052 157.484 3.88937 158.945 1.89123C159.375 1.30612 159.937 0.829939 160.586 0.501335C161.235 0.172732 161.953 0.000971879 162.681 2.12465e-06H242.205C242.92 -0.000682405 243.626 0.164051 244.266 0.481188C244.907 0.798325 245.464 1.25918 245.894 1.82733C246.325 2.39549 246.617 3.05538 246.746 3.75487C246.876 4.45437 246.841 5.1743 246.643 5.85779C243.325 17.2631 236.493 47.4838 244.684 81.6896C250.894 107.622 247.908 118.2 244.311 122.507C241.938 125.348 239.323 125.492 238.82 125.492Z" fill="#E6E6E6"/>
<path d="M224.491 139.738C224.447 139.738 224.419 139.737 224.409 139.737L219.084 139.737V138.957H224.428C224.553 138.961 227.077 139.032 229.402 136.226C232.869 132.043 235.715 121.69 229.591 96.1172C221.357 61.7309 228.225 31.3526 231.56 19.8878C231.724 19.3206 231.753 18.7232 231.646 18.1428C231.538 17.5623 231.296 17.0148 230.938 16.5434C230.581 16.072 230.118 15.6896 229.587 15.4266C229.056 15.1635 228.47 15.0269 227.876 15.0276H148.353C147.748 15.0284 147.152 15.171 146.614 15.4437C146.075 15.7164 145.608 16.1115 145.252 16.5971C143.839 18.5293 141.9 22.2413 140.687 28.9531L139.915 28.8151C141.154 21.9575 143.156 18.1363 144.617 16.1382C145.046 15.5531 145.608 15.0769 146.257 14.7483C146.906 14.4197 147.624 14.2479 148.353 14.247H227.876C228.592 14.2463 229.297 14.411 229.938 14.7281C230.578 15.0453 231.136 15.5061 231.566 16.0743C231.996 16.6424 232.288 17.3023 232.418 18.0018C232.548 18.7013 232.512 19.4213 232.314 20.1047C228.996 31.51 222.164 61.7308 230.355 95.9365C236.565 121.869 233.58 132.447 229.982 136.754C227.609 139.595 224.995 139.738 224.491 139.738Z" fill="#CCCCCC"/>
<path d="M216.026 110.185C207.834 75.9794 214.667 45.7562 217.986 34.3533C218.184 33.6698 218.219 32.9499 218.089 32.2506C217.959 31.5512 217.667 30.8915 217.237 30.3233C216.807 29.7552 216.25 29.2943 215.61 28.9769C214.969 28.6595 214.264 28.4943 213.549 28.4943H134.023C133.295 28.495 132.578 28.6665 131.929 28.9948C131.28 29.3232 130.718 29.7991 130.289 30.3839C127.078 34.7732 120.417 49.3287 127.857 89.6032C131.836 111.149 131.777 125.839 130.477 135.517C129.747 140.966 128.623 144.824 127.603 147.425L127.494 147.701C127.279 148.227 127.168 148.789 127.164 149.357C127.157 149.999 127.286 150.634 127.544 151.222C127.801 151.811 128.181 152.338 128.659 152.769C128.97 153.059 129.322 153.302 129.705 153.491C130.022 153.652 130.358 153.774 130.704 153.855C131.058 153.941 131.42 153.983 131.783 153.983H210.081C210.091 153.983 210.117 153.986 210.164 153.986C210.665 153.986 213.282 153.842 215.654 151.001C219.25 146.694 222.236 136.117 216.026 110.185ZM215.073 150.473C212.747 153.281 210.223 153.209 210.101 153.205H131.783C131.156 153.205 130.539 153.052 129.985 152.76C129.431 152.468 128.958 152.045 128.606 151.529C128.297 151.083 128.089 150.575 127.997 150.04C127.905 149.506 127.932 148.958 128.075 148.435C128.112 148.283 128.161 148.134 128.22 147.989C129.385 145.014 130.248 141.93 130.797 138.784C132.658 128.697 133.004 113.131 128.629 89.4622C121.245 49.4862 127.775 35.1504 130.922 30.8432C131.279 30.3583 131.746 29.9637 132.285 29.6913C132.823 29.4189 133.419 29.2763 134.023 29.2751H213.549C214.142 29.2747 214.727 29.4114 215.258 29.6744C215.789 29.9375 216.252 30.3197 216.609 30.7908C216.966 31.262 217.208 31.8092 217.316 32.3893C217.424 32.9694 217.395 33.5665 217.231 34.1335C213.895 45.5988 207.029 75.9794 215.264 110.365C221.388 135.937 218.541 146.29 215.073 150.473Z" fill="#3F3D56"/>
<path d="M178.247 65.741H137.275C136.442 65.741 135.643 65.4121 135.054 64.8264C134.465 64.2408 134.134 63.4466 134.134 62.6184C134.134 61.7902 134.465 60.996 135.054 60.4104C135.643 59.8248 136.442 59.4958 137.275 59.4958H178.247C179.08 59.4958 179.878 59.8248 180.467 60.4104C181.056 60.996 181.387 61.7902 181.387 62.6184C181.387 63.4466 181.056 64.2408 180.467 64.8264C179.878 65.4121 179.08 65.741 178.247 65.741Z" fill="#CCCCCC"/>
<path d="M178.247 79.191H137.275C136.442 79.191 135.643 78.8621 135.054 78.2765C134.465 77.6909 134.134 76.8966 134.134 76.0684C134.134 75.2403 134.465 74.446 135.054 73.8604C135.643 73.2748 136.442 72.9458 137.275 72.9458H178.247C179.08 72.9458 179.878 73.2748 180.467 73.8604C181.056 74.446 181.387 75.2403 181.387 76.0684C181.387 76.8966 181.056 77.6909 180.467 78.2765C179.878 78.8621 179.08 79.191 178.247 79.191Z" fill="#CCCCCC"/>
<path d="M181.546 92.9691H140.574C139.741 92.9691 138.942 92.6401 138.353 92.0545C137.764 91.4689 137.433 90.6746 137.433 89.8464C137.433 89.0183 137.764 88.224 138.353 87.6384C138.942 87.0528 139.741 86.7238 140.574 86.7238H181.546C182.379 86.7238 183.177 87.0528 183.766 87.6384C184.355 88.224 184.686 89.0183 184.686 89.8464C184.686 90.6746 184.355 91.4689 183.766 92.0545C183.177 92.6401 182.379 92.9691 181.546 92.9691Z" fill="#CCCCCC"/>
<path d="M183.855 107.403H142.883C142.05 107.403 141.251 107.074 140.662 106.489C140.074 105.903 139.743 105.109 139.743 104.281C139.743 103.452 140.074 102.658 140.662 102.073C141.251 101.487 142.05 101.158 142.883 101.158H183.855C184.688 101.158 185.487 101.487 186.076 102.073C186.665 102.658 186.996 103.452 186.996 104.281C186.996 105.109 186.665 105.903 186.076 106.489C185.487 107.074 184.688 107.403 183.855 107.403Z" fill="#CCCCCC"/>
<path d="M183.873 41.4951H154.431C154.018 41.4955 153.609 41.415 153.228 41.2583C152.846 41.1016 152.5 40.8716 152.208 40.5816C151.916 40.2916 151.684 39.9472 151.526 39.5682C151.368 39.1891 151.287 38.7828 151.287 38.3724C151.287 37.9621 151.368 37.5558 151.526 37.1767C151.684 36.7977 151.916 36.4533 152.208 36.1633C152.5 35.8733 152.846 35.6433 153.228 35.4866C153.609 35.3299 154.018 35.2494 154.431 35.2498H183.873C184.706 35.2498 185.504 35.5788 186.093 36.1644C186.682 36.75 187.013 37.5443 187.013 38.3724C187.013 39.2006 186.682 39.9949 186.093 40.5805C185.504 41.1661 184.706 41.4951 183.873 41.4951Z" fill="#C51333"/>
<path d="M200.101 108.545C202.47 108.545 204.39 106.636 204.39 104.281C204.39 101.925 202.47 100.016 200.101 100.016C197.732 100.016 195.812 101.925 195.812 104.281C195.812 106.636 197.732 108.545 200.101 108.545Z" fill="#CCCCCC"/>
<path d="M185.835 121.509H144.863C144.03 121.509 143.231 121.18 142.642 120.595C142.053 120.009 141.722 119.215 141.722 118.387C141.722 117.558 142.053 116.764 142.642 116.179C143.231 115.593 144.03 115.264 144.863 115.264H185.835C186.668 115.264 187.467 115.593 188.055 116.179C188.644 116.764 188.975 117.558 188.975 118.387C188.975 119.215 188.644 120.009 188.055 120.595C187.467 121.18 186.668 121.509 185.835 121.509Z" fill="#CCCCCC"/>
<path d="M202.081 122.651C204.449 122.651 206.37 120.742 206.37 118.387C206.37 116.031 204.449 114.122 202.081 114.122C199.712 114.122 197.792 116.031 197.792 118.387C197.792 120.742 199.712 122.651 202.081 122.651Z" fill="#CCCCCC"/>
</g>
<defs>
<clipPath id="clip0_60_1742">
<rect width="280" height="154" fill="white"/>
</clipPath>
</defs>
</svg>
